<svg width="39" height="39" viewBox="0 0 39 39" fill="none" xmlns="http://www.w3.org/2000/svg">
<rect x="19.0918" y="0.707107" width="26" height="26" transform="rotate(45 19.0918 0.707107)" stroke="#2570D4"/>
<g clip-path="url(#clip0_577_131)">
<g filter="url(#filter0_dd_577_131)">
<path fill-rule="evenodd" clip-rule="evenodd" d="M13.375 23.5469H15.9062V24.625H13.375V23.5469ZM15.907 15.9062H13.375V14.8281H15.9062V15.8922C15.9062 15.8969 15.9066 15.9016 15.907 15.9062ZM17.3594 17.3594H14.8281V16.2812H17.3594V17.3594ZM21.7188 21.7188H19.1875V20.6507C19.1875 20.6474 19.1871 20.6439 19.187 20.6406H21.7188V21.7187V21.7188ZM19.1875 23.5469H21.7188V24.625H19.1875V23.5469ZM14.8281 22.0938H17.3594V23.1719H14.8281V22.0938ZM13.375 18.8125V17.7344H15.9062V18.8125H13.375ZM14.8281 20.2656V19.1875H17.3594V20.2656H14.8281ZM13.375 21.7188V20.6406H15.9062V21.7188H13.375ZM23.1719 23.1719H20.6406V22.0938H23.1719V23.1719ZM24.8125 23.1719H23.5469V21.9062C23.5469 21.8816 23.5421 21.8572 23.5326 21.8345C23.5232 21.8117 23.5094 21.791 23.492 21.7736C23.4746 21.7562 23.4539 21.7424 23.4312 21.733C23.4084 21.7236 23.384 21.7187 23.3594 21.7188H22.0938V20.4531C22.0938 20.4034 22.074 20.3557 22.0388 20.3205C22.0037 20.2854 21.956 20.2656 21.9062 20.2656H20.6406V19C20.6406 18.9503 20.6209 18.9026 20.5857 18.8674C20.5505 18.8323 20.5029 18.8125 20.4531 18.8125H19.1875V17.5469C19.1875 17.4971 19.1677 17.4495 19.1326 17.4143C19.0974 17.3791 19.0497 17.3594 19 17.3594H17.7344V16.0938C17.7344 16.044 17.7146 15.9963 17.6795 15.9612C17.6443 15.926 17.5966 15.9062 17.5469 15.9062H16.2806C16.2809 15.9016 16.2813 15.8969 16.2813 15.8922V14.6406C16.2813 14.5909 16.2615 14.5432 16.2264 14.508C16.1912 14.4729 16.1435 14.4531 16.0938 14.4531H14.8281V13.1875C14.8281 13.1378 14.8084 13.0901 14.7732 13.0549C14.738 13.0198 14.6904 13 14.6406 13H13.1875C13.1378 13 13.0901 13.0198 13.0549 13.0549C13.0198 13.0901 13 13.1378 13 13.1875V24.8125C13 24.8622 13.0198 24.9099 13.0549 24.9451C13.0901 24.9802 13.1378 25 13.1875 25H24.8125C24.8622 25 24.9099 24.9802 24.9451 24.9451C24.9802 24.9099 25 24.8622 25 24.8125V23.3594C25 23.3096 24.9802 23.262 24.9451 23.2268C24.9099 23.1916 24.8622 23.1719 24.8125 23.1719Z" fill="#2570D4"/>
</g>
</g>
<defs>
<filter id="filter0_dd_577_131" x="9" y="13" width="20" height="20" filterUnits="userSpaceOnUse" color-interpolation-filters="sRGB">
<feFlood flood-opacity="0" result="BackgroundImageFix"/>
<feColorMatrix in="SourceAlpha" type="matrix" values="0 0 0 0 0 0 0 0 0 0 0 0 0 0 0 0 0 0 127 0" result="hardAlpha"/>
<feOffset dy="4"/>
<feGaussianBlur stdDeviation="2"/>
<feComposite in2="hardAlpha" operator="out"/>
<feColorMatrix type="matrix" values="0 0 0 0 0 0 0 0 0 0 0 0 0 0 0 0 0 0 0.25 0"/>
<feBlend mode="normal" in2="BackgroundImageFix" result="effect1_dropShadow_577_131"/>
<feColorMatrix in="SourceAlpha" type="matrix" values="0 0 0 0 0 0 0 0 0 0 0 0 0 0 0 0 0 0 127 0" result="hardAlpha"/>
<feOffset dy="4"/>
<feGaussianBlur stdDeviation="2"/>
<feComposite in2="hardAlpha" operator="out"/>
<feColorMatrix type="matrix" values="0 0 0 0 0 0 0 0 0 0 0 0 0 0 0 0 0 0 0.25 0"/>
<feBlend mode="normal" in2="effect1_dropShadow_577_131" result="effect2_dropShadow_577_131"/>
<feBlend mode="normal" in="SourceGraphic" in2="effect2_dropShadow_577_131" result="shape"/>
</filter>
<clipPath id="clip0_577_131">
<rect width="12" height="12" fill="white" transform="translate(13 13)"/>
</clipPath>
</defs>
</svg>
