<svg width="17" height="748" viewBox="0 0 17 748" fill="none" xmlns="http://www.w3.org/2000/svg">
<path opacity="0.5" d="M16 411.396L16 411.672C16 411.723 15.9747 411.735 15.924 411.708L13.788 410.852L13.788 411.86C13.788 411.905 13.764 411.928 13.716 411.928L13.496 411.928C13.4507 411.928 13.428 411.905 13.428 411.86L13.428 410.504C13.428 410.456 13.4507 410.432 13.496 410.432L13.744 410.432C13.7867 410.432 13.8427 410.447 13.912 410.476L15.936 411.284C15.9787 411.3 16 411.337 16 411.396ZM15.66 409.444L15.66 409.128C15.66 409.029 15.6373 408.957 15.592 408.912C15.5467 408.864 15.4747 408.84 15.376 408.84L15.16 408.84C14.96 408.84 14.86 408.936 14.86 409.128L14.86 409.444C14.86 409.636 14.96 409.732 15.16 409.732L15.376 409.732C15.4747 409.732 15.5467 409.709 15.592 409.664C15.6373 409.616 15.66 409.542 15.66 409.444ZM14.548 409.444L14.548 409.128C14.548 408.936 14.448 408.84 14.248 408.84L14.052 408.84C13.9533 408.84 13.8813 408.864 13.836 408.912C13.7907 408.957 13.768 409.029 13.768 409.128L13.768 409.444C13.768 409.542 13.7907 409.616 13.836 409.664C13.8813 409.709 13.9533 409.732 14.052 409.732L14.248 409.732C14.448 409.732 14.548 409.636 14.548 409.444ZM16 409.072L16 409.496C16 409.693 15.9493 409.846 15.848 409.956C15.7467 410.065 15.5987 410.12 15.404 410.12L15.188 410.12C14.9427 410.12 14.7827 410.028 14.708 409.844C14.6333 410.028 14.472 410.12 14.224 410.12L14.02 410.12C13.828 410.12 13.6813 410.065 13.58 409.956C13.4787 409.846 13.428 409.693 13.428 409.496L13.428 409.072C13.428 408.874 13.4787 408.722 13.58 408.616C13.6813 408.506 13.828 408.452 14.02 408.452L14.224 408.452C14.3467 408.452 14.4507 408.477 14.536 408.528C14.6213 408.576 14.6787 408.641 14.708 408.724C14.78 408.542 14.9413 408.452 15.192 408.452L15.404 408.452C15.5987 408.452 15.7467 408.506 15.848 408.616C15.9493 408.722 16 408.874 16 409.072ZM14.696 407.343L14.696 406.783L14.064 406.783C13.8667 406.783 13.768 406.88 13.768 407.075L13.768 407.343C13.768 407.535 13.8667 407.631 14.064 407.631L14.404 407.631C14.5987 407.631 14.696 407.535 14.696 407.343ZM16 407.019L16 407.831C16 407.881 15.9773 407.907 15.932 407.907L15.724 407.907C15.6813 407.907 15.66 407.881 15.66 407.831L15.66 407.075C15.66 406.883 15.5613 406.787 15.364 406.787L15.04 406.787L15.04 407.403C15.04 407.6 14.9867 407.753 14.88 407.863C14.7707 407.972 14.6187 408.027 14.424 408.027L14.048 408.027C13.8507 408.027 13.6987 407.972 13.592 407.863C13.4827 407.753 13.428 407.6 13.428 407.403L13.428 407.019C13.428 406.821 13.4827 406.668 13.592 406.559C13.6987 406.449 13.8507 406.395 14.048 406.395L15.38 406.395C15.5747 406.395 15.7267 406.449 15.836 406.559C15.9453 406.668 16 406.821 16 407.019ZM15.932 405.952L15.564 405.952C15.3987 405.952 15.26 405.881 15.148 405.74L14.532 404.984C14.4307 404.856 14.3133 404.792 14.18 404.792L14.048 404.792C13.856 404.792 13.76 404.892 13.76 405.092L13.76 405.288C13.76 405.389 13.7827 405.463 13.828 405.508C13.8733 405.553 13.9467 405.576 14.048 405.576L14.196 405.576C14.244 405.576 14.268 405.599 14.268 405.644L14.268 405.9C14.268 405.945 14.244 405.968 14.196 405.968L14.04 405.968C13.8453 405.968 13.6947 405.913 13.588 405.804C13.4813 405.695 13.428 405.541 13.428 405.344L13.428 405.032C13.428 404.837 13.4813 404.685 13.588 404.576C13.6947 404.467 13.8453 404.412 14.04 404.412L14.204 404.412C14.412 404.412 14.5827 404.493 14.716 404.656L15.344 405.424C15.3947 405.485 15.4547 405.516 15.524 405.516L15.652 405.516L15.652 404.476C15.652 404.428 15.6747 404.404 15.72 404.404L15.932 404.404C15.9773 404.404 16 404.428 16 404.476L16 405.88C16 405.928 15.9773 405.952 15.932 405.952ZM14.548 403.327L14.548 403.107C14.548 402.91 14.4507 402.811 14.256 402.811L14.048 402.811C13.856 402.811 13.76 402.91 13.76 403.107L13.76 403.343C13.76 403.442 13.7827 403.515 13.828 403.563C13.8733 403.608 13.9467 403.631 14.048 403.631L14.164 403.631C14.2093 403.631 14.232 403.654 14.232 403.699L14.232 403.955C14.232 404 14.2093 404.023 14.164 404.023L14.04 404.023C13.8453 404.023 13.6947 403.968 13.588 403.859C13.4813 403.75 13.428 403.596 13.428 403.399L13.428 403.051C13.428 402.854 13.4813 402.7 13.588 402.591C13.6947 402.482 13.8453 402.427 14.04 402.427L14.26 402.427C14.4947 402.427 14.644 402.534 14.708 402.747C14.7587 402.534 14.908 402.427 15.156 402.427L15.388 402.427C15.5827 402.427 15.7333 402.482 15.84 402.591C15.9467 402.7 16 402.854 16 403.051L16 403.399C16 403.596 15.9467 403.75 15.84 403.859C15.7333 403.968 15.5827 404.023 15.388 404.023L15.248 404.023C15.2 404.023 15.176 404 15.176 403.955L15.176 403.699C15.176 403.654 15.2 403.631 15.248 403.631L15.38 403.631C15.4787 403.631 15.552 403.608 15.6 403.563C15.6453 403.515 15.668 403.442 15.668 403.343L15.668 403.107C15.668 402.91 15.572 402.811 15.38 402.811L15.16 402.811C14.9653 402.811 14.868 402.91 14.868 403.107L14.868 403.327C14.868 403.372 14.8453 403.395 14.8 403.395L14.62 403.395C14.572 403.395 14.548 403.372 14.548 403.327ZM15.932 401.034L15.564 401.034C15.3987 401.034 15.26 400.964 15.148 400.822L14.532 400.066C14.4307 399.938 14.3133 399.874 14.18 399.874L14.048 399.874C13.856 399.874 13.76 399.974 13.76 400.174L13.76 400.37C13.76 400.472 13.7827 400.545 13.828 400.59C13.8733 400.636 13.9467 400.658 14.048 400.658L14.196 400.658C14.244 400.658 14.268 400.681 14.268 400.726L14.268 400.982C14.268 401.028 14.244 401.05 14.196 401.05L14.04 401.05C13.8453 401.05 13.6947 400.996 13.588 400.886C13.4813 400.777 13.428 400.624 13.428 400.426L13.428 400.114C13.428 399.92 13.4813 399.768 13.588 399.658C13.6947 399.549 13.8453 399.494 14.04 399.494L14.204 399.494C14.412 399.494 14.5827 399.576 14.716 399.738L15.344 400.506C15.3947 400.568 15.4547 400.598 15.524 400.598L15.652 400.598L15.652 399.558C15.652 399.51 15.6747 399.486 15.72 399.486L15.932 399.486C15.9773 399.486 16 399.51 16 399.558L16 400.962C16 401.01 15.9773 401.034 15.932 401.034ZM14.548 398.409L14.548 398.189C14.548 397.992 14.4507 397.893 14.256 397.893L14.048 397.893C13.856 397.893 13.76 397.992 13.76 398.189L13.76 398.425C13.76 398.524 13.7827 398.597 13.828 398.645C13.8733 398.69 13.9467 398.713 14.048 398.713L14.164 398.713C14.2093 398.713 14.232 398.736 14.232 398.781L14.232 399.037C14.232 399.082 14.2093 399.105 14.164 399.105L14.04 399.105C13.8453 399.105 13.6947 399.05 13.588 398.941C13.4813 398.832 13.428 398.678 13.428 398.481L13.428 398.133C13.428 397.936 13.4813 397.782 13.588 397.673C13.6947 397.564 13.8453 397.509 14.04 397.509L14.26 397.509C14.4947 397.509 14.644 397.616 14.708 397.829C14.7587 397.616 14.908 397.509 15.156 397.509L15.388 397.509C15.5827 397.509 15.7333 397.564 15.84 397.673C15.9467 397.782 16 397.936 16 398.133L16 398.481C16 398.678 15.9467 398.832 15.84 398.941C15.7333 399.05 15.5827 399.105 15.388 399.105L15.248 399.105C15.2 399.105 15.176 399.082 15.176 399.037L15.176 398.781C15.176 398.736 15.2 398.713 15.248 398.713L15.38 398.713C15.4787 398.713 15.552 398.69 15.6 398.645C15.6453 398.597 15.668 398.524 15.668 398.425L15.668 398.189C15.668 397.992 15.572 397.893 15.38 397.893L15.16 397.893C14.9653 397.893 14.868 397.992 14.868 398.189L14.868 398.409C14.868 398.454 14.8453 398.477 14.8 398.477L14.62 398.477C14.572 398.477 14.548 398.454 14.548 398.409ZM15.66 396.369L15.66 396.053C15.66 395.955 15.6373 395.883 15.592 395.837C15.5467 395.789 15.4747 395.765 15.376 395.765L15.16 395.765C14.96 395.765 14.86 395.861 14.86 396.053L14.86 396.369C14.86 396.561 14.96 396.657 15.16 396.657L15.376 396.657C15.4747 396.657 15.5467 396.635 15.592 396.589C15.6373 396.541 15.66 396.468 15.66 396.369ZM14.548 396.369L14.548 396.053C14.548 395.861 14.448 395.765 14.248 395.765L14.052 395.765C13.9533 395.765 13.8813 395.789 13.836 395.837C13.7907 395.883 13.768 395.955 13.768 396.053L13.768 396.369C13.768 396.468 13.7907 396.541 13.836 396.589C13.8813 396.635 13.9533 396.657 14.052 396.657L14.248 396.657C14.448 396.657 14.548 396.561 14.548 396.369ZM16 395.997L16 396.421C16 396.619 15.9493 396.772 15.848 396.881C15.7467 396.991 15.5987 397.045 15.404 397.045L15.188 397.045C14.9427 397.045 14.7827 396.953 14.708 396.769C14.6333 396.953 14.472 397.045 14.224 397.045L14.02 397.045C13.828 397.045 13.6813 396.991 13.58 396.881C13.4787 396.772 13.428 396.619 13.428 396.421L13.428 395.997C13.428 395.8 13.4787 395.648 13.58 395.541C13.6813 395.432 13.828 395.377 14.02 395.377L14.224 395.377C14.3467 395.377 14.4507 395.403 14.536 395.453C14.6213 395.501 14.6787 395.567 14.708 395.649C14.78 395.468 14.9413 395.377 15.192 395.377L15.404 395.377C15.5987 395.377 15.7467 395.432 15.848 395.541C15.9493 395.648 16 395.8 16 395.997ZM14.696 394.269L14.696 393.709L14.064 393.709C13.8667 393.709 13.768 393.806 13.768 394.001L13.768 394.269C13.768 394.461 13.8667 394.557 14.064 394.557L14.404 394.557C14.5987 394.557 14.696 394.461 14.696 394.269ZM16 393.945L16 394.757C16 394.807 15.9773 394.833 15.932 394.833L15.724 394.833C15.6813 394.833 15.66 394.807 15.66 394.757L15.66 394.001C15.66 393.809 15.5613 393.713 15.364 393.713L15.04 393.713L15.04 394.329C15.04 394.526 14.9867 394.679 14.88 394.789C14.7707 394.898 14.6187 394.953 14.424 394.953L14.048 394.953C13.8507 394.953 13.6987 394.898 13.592 394.789C13.4827 394.679 13.428 394.526 13.428 394.329L13.428 393.945C13.428 393.747 13.4827 393.594 13.592 393.485C13.6987 393.375 13.8507 393.321 14.048 393.321L15.38 393.321C15.5747 393.321 15.7267 393.375 15.836 393.485C15.9453 393.594 16 393.747 16 393.945ZM14.696 392.21L14.696 391.65L14.064 391.65C13.8667 391.65 13.768 391.747 13.768 391.942L13.768 392.21C13.768 392.402 13.8667 392.498 14.064 392.498L14.404 392.498C14.5987 392.498 14.696 392.402 14.696 392.21ZM16 391.886L16 392.698C16 392.749 15.9773 392.774 15.932 392.774L15.724 392.774C15.6813 392.774 15.66 392.749 15.66 392.698L15.66 391.942C15.66 391.75 15.5613 391.654 15.364 391.654L15.04 391.654L15.04 392.27C15.04 392.467 14.9867 392.621 14.88 392.73C14.7707 392.839 14.6187 392.894 14.424 392.894L14.048 392.894C13.8507 392.894 13.6987 392.839 13.592 392.73C13.4827 392.621 13.428 392.467 13.428 392.27L13.428 391.886C13.428 391.689 13.4827 391.535 13.592 391.426C13.6987 391.317 13.8507 391.262 14.048 391.262L15.38 391.262C15.5747 391.262 15.7267 391.317 15.836 391.426C15.9453 391.535 16 391.689 16 391.886ZM15.168 389.703L13.752 389.703L15.168 390.491L15.168 389.703ZM16 389.399L16 389.635C16 389.681 15.9773 389.703 15.932 389.703L15.512 389.703L15.512 390.759C15.512 390.837 15.4733 390.875 15.396 390.875L15.272 390.875C15.2133 390.875 15.1613 390.863 15.116 390.839L13.528 389.947C13.488 389.926 13.4613 389.906 13.448 389.887C13.4347 389.869 13.428 389.841 13.428 389.803L13.428 389.451C13.428 389.374 13.4667 389.335 13.544 389.335L15.168 389.335L15.168 389.043C15.168 388.998 15.1907 388.975 15.236 388.975L15.436 388.975C15.4867 388.975 15.512 388.998 15.512 389.043L15.512 389.335L15.932 389.335C15.9773 389.335 16 389.357 16 389.399ZM15.66 387.979L15.66 387.695C15.66 387.503 15.5613 387.407 15.364 387.407L14.064 387.407C13.8667 387.407 13.768 387.503 13.768 387.695L13.768 387.979C13.768 388.171 13.8667 388.267 14.064 388.267L15.364 388.267C15.5613 388.267 15.66 388.171 15.66 387.979ZM16 387.639L16 388.039C16 388.236 15.9453 388.389 15.836 388.499C15.7267 388.608 15.5747 388.663 15.38 388.663L14.048 388.663C13.8507 388.663 13.6987 388.608 13.592 388.499C13.4827 388.389 13.428 388.236 13.428 388.039L13.428 387.639C13.428 387.444 13.4827 387.292 13.592 387.183C13.6987 387.073 13.8507 387.019 14.048 387.019L15.38 387.019C15.5747 387.019 15.7267 387.073 15.836 387.183C15.9453 387.292 16 387.444 16 387.639ZM15.932 386.573L15.564 386.573C15.3987 386.573 15.26 386.503 15.148 386.361L14.532 385.605C14.4307 385.477 14.3133 385.413 14.18 385.413L14.048 385.413C13.856 385.413 13.76 385.513 13.76 385.713L13.76 385.909C13.76 386.011 13.7827 386.084 13.828 386.129C13.8733 386.175 13.9467 386.197 14.048 386.197L14.196 386.197C14.244 386.197 14.268 386.22 14.268 386.265L14.268 386.521C14.268 386.567 14.244 386.589 14.196 386.589L14.04 386.589C13.8453 386.589 13.6947 386.535 13.588 386.425C13.4813 386.316 13.428 386.163 13.428 385.965L13.428 385.653C13.428 385.459 13.4813 385.307 13.588 385.197C13.6947 385.088 13.8453 385.033 14.04 385.033L14.204 385.033C14.412 385.033 14.5827 385.115 14.716 385.277L15.344 386.045C15.3947 386.107 15.4547 386.137 15.524 386.137L15.652 386.137L15.652 385.097C15.652 385.049 15.6747 385.025 15.72 385.025L15.932 385.025C15.9773 385.025 16 385.049 16 385.097L16 386.501C16 386.549 15.9773 386.573 15.932 386.573ZM15.932 383.671L15.564 383.671C15.3987 383.671 15.26 383.6 15.148 383.459L14.532 382.703C14.4307 382.575 14.3133 382.511 14.18 382.511L14.048 382.511C13.856 382.511 13.76 382.611 13.76 382.811L13.76 383.007C13.76 383.108 13.7827 383.182 13.828 383.227C13.8733 383.272 13.9467 383.295 14.048 383.295L14.196 383.295C14.244 383.295 14.268 383.318 14.268 383.363L14.268 383.619C14.268 383.664 14.244 383.687 14.196 383.687L14.04 383.687C13.8453 383.687 13.6947 383.632 13.588 383.523C13.4813 383.414 13.428 383.26 13.428 383.063L13.428 382.751C13.428 382.556 13.4813 382.404 13.588 382.295C13.6947 382.186 13.8453 382.131 14.04 382.131L14.204 382.131C14.412 382.131 14.5827 382.212 14.716 382.375L15.344 383.143C15.3947 383.204 15.4547 383.235 15.524 383.235L15.652 383.235L15.652 382.195C15.652 382.147 15.6747 382.123 15.72 382.123L15.932 382.123C15.9773 382.123 16 382.147 16 382.195L16 383.599C16 383.647 15.9773 383.671 15.932 383.671ZM15.66 381.022L15.66 380.706C15.66 380.607 15.6373 380.535 15.592 380.49C15.5467 380.442 15.4747 380.418 15.376 380.418L15.16 380.418C14.96 380.418 14.86 380.514 14.86 380.706L14.86 381.022C14.86 381.214 14.96 381.31 15.16 381.31L15.376 381.31C15.4747 381.31 15.5467 381.287 15.592 381.242C15.6373 381.194 15.66 381.12 15.66 381.022ZM14.548 381.022L14.548 380.706C14.548 380.514 14.448 380.418 14.248 380.418L14.052 380.418C13.9533 380.418 13.8813 380.442 13.836 380.49C13.7907 380.535 13.768 380.607 13.768 380.706L13.768 381.022C13.768 381.12 13.7907 381.194 13.836 381.242C13.8813 381.287 13.9533 381.31 14.052 381.31L14.248 381.31C14.448 381.31 14.548 381.214 14.548 381.022ZM16 380.65L16 381.074C16 381.271 15.9493 381.424 15.848 381.534C15.7467 381.643 15.5987 381.698 15.404 381.698L15.188 381.698C14.9427 381.698 14.7827 381.606 14.708 381.422C14.6333 381.606 14.472 381.698 14.224 381.698L14.02 381.698C13.828 381.698 13.6813 381.643 13.58 381.534C13.4787 381.424 13.428 381.271 13.428 381.074L13.428 380.65C13.428 380.452 13.4787 380.3 13.58 380.194C13.6813 380.084 13.828 380.03 14.02 380.03L14.224 380.03C14.3467 380.03 14.4507 380.055 14.536 380.106C14.6213 380.154 14.6787 380.219 14.708 380.302C14.78 380.12 14.9413 380.03 15.192 380.03L15.404 380.03C15.5987 380.03 15.7467 380.084 15.848 380.194C15.9493 380.3 16 380.452 16 380.65ZM14.696 378.921L14.696 378.361L14.064 378.361C13.8667 378.361 13.768 378.458 13.768 378.653L13.768 378.921C13.768 379.113 13.8667 379.209 14.064 379.209L14.404 379.209C14.5987 379.209 14.696 379.113 14.696 378.921ZM16 378.597L16 379.409C16 379.46 15.9773 379.485 15.932 379.485L15.724 379.485C15.6813 379.485 15.66 379.46 15.66 379.409L15.66 378.653C15.66 378.461 15.5613 378.365 15.364 378.365L15.04 378.365L15.04 378.981C15.04 379.178 14.9867 379.332 14.88 379.441C14.7707 379.55 14.6187 379.605 14.424 379.605L14.048 379.605C13.8507 379.605 13.6987 379.55 13.592 379.441C13.4827 379.332 13.428 379.178 13.428 378.981L13.428 378.597C13.428 378.4 13.4827 378.246 13.592 378.137C13.6987 378.028 13.8507 377.973 14.048 377.973L15.38 377.973C15.5747 377.973 15.7267 378.028 15.836 378.137C15.9453 378.246 16 378.4 16 378.597ZM13.428 376.278L13.428 376.026C13.428 375.981 13.4493 375.958 13.492 375.958L15.38 375.958C15.5747 375.958 15.7267 376.013 15.836 376.122C15.9453 376.232 16 376.384 16 376.578L16 376.978C16 377.176 15.9453 377.329 15.836 377.438C15.7267 377.548 15.5747 377.602 15.38 377.602L15.02 377.602C14.9747 377.602 14.952 377.578 14.952 377.53L14.952 377.278C14.952 377.233 14.9747 377.21 15.02 377.21L15.364 377.21C15.5613 377.21 15.66 377.114 15.66 376.922L15.66 376.638C15.66 376.446 15.5613 376.35 15.364 376.35L13.496 376.35C13.4507 376.35 13.428 376.326 13.428 376.278ZM14.696 374.811L14.696 374.251L14.064 374.251C13.8667 374.251 13.768 374.349 13.768 374.543L13.768 374.811C13.768 375.003 13.8667 375.099 14.064 375.099L14.404 375.099C14.5987 375.099 14.696 375.003 14.696 374.811ZM16 374.487L16 375.299C16 375.35 15.9773 375.375 15.932 375.375L15.724 375.375C15.6813 375.375 15.66 375.35 15.66 375.299L15.66 374.543C15.66 374.351 15.5613 374.255 15.364 374.255L15.04 374.255L15.04 374.871C15.04 375.069 14.9867 375.222 14.88 375.331C14.7707 375.441 14.6187 375.495 14.424 375.495L14.048 375.495C13.8507 375.495 13.6987 375.441 13.592 375.331C13.4827 375.222 13.428 375.069 13.428 374.871L13.428 374.487C13.428 374.29 13.4827 374.137 13.592 374.027C13.6987 373.918 13.8507 373.863 14.048 373.863L15.38 373.863C15.5747 373.863 15.7267 373.918 15.836 374.027C15.9453 374.137 16 374.29 16 374.487ZM15.66 372.905L15.66 372.341C15.66 372.149 15.5613 372.053 15.364 372.053L14.064 372.053C13.8667 372.053 13.768 372.149 13.768 372.341L13.768 372.905C13.768 372.934 13.7813 372.949 13.808 372.949L15.616 372.949C15.6453 372.949 15.66 372.934 15.66 372.905ZM15.932 373.337L13.496 373.337C13.4507 373.337 13.428 373.314 13.428 373.269L13.428 372.285C13.428 372.09 13.4827 371.938 13.592 371.829C13.6987 371.717 13.8507 371.661 14.048 371.661L15.38 371.661C15.5747 371.661 15.7267 371.717 15.836 371.829C15.9453 371.938 16 372.09 16 372.285L16 373.269C16 373.314 15.9773 373.337 15.932 373.337ZM13.428 369.95L13.428 369.698C13.428 369.653 13.4493 369.63 13.492 369.63L15.38 369.63C15.5747 369.63 15.7267 369.685 15.836 369.794C15.9453 369.903 16 370.055 16 370.25L16 370.65C16 370.847 15.9453 371.001 15.836 371.11C15.7267 371.219 15.5747 371.274 15.38 371.274L15.02 371.274C14.9747 371.274 14.952 371.25 14.952 371.202L14.952 370.95C14.952 370.905 14.9747 370.882 15.02 370.882L15.364 370.882C15.5613 370.882 15.66 370.786 15.66 370.594L15.66 370.31C15.66 370.118 15.5613 370.022 15.364 370.022L13.496 370.022C13.4507 370.022 13.428 369.998 13.428 369.95ZM15.932 369.151L15.564 369.151C15.3987 369.151 15.26 369.081 15.148 368.939L14.532 368.183C14.4307 368.055 14.3133 367.991 14.18 367.991L14.048 367.991C13.856 367.991 13.76 368.091 13.76 368.291L13.76 368.487C13.76 368.589 13.7827 368.662 13.828 368.707C13.8733 368.753 13.9467 368.775 14.048 368.775L14.196 368.775C14.244 368.775 14.268 368.798 14.268 368.843L14.268 369.099C14.268 369.145 14.244 369.167 14.196 369.167L14.04 369.167C13.8453 369.167 13.6947 369.113 13.588 369.003C13.4813 368.894 13.428 368.741 13.428 368.543L13.428 368.231C13.428 368.037 13.4813 367.885 13.588 367.775C13.6947 367.666 13.8453 367.611 14.04 367.611L14.204 367.611C14.412 367.611 14.5827 367.693 14.716 367.855L15.344 368.623C15.3947 368.685 15.4547 368.715 15.524 368.715L15.652 368.715L15.652 367.675C15.652 367.627 15.6747 367.603 15.72 367.603L15.932 367.603C15.9773 367.603 16 367.627 16 367.675L16 369.079C16 369.127 15.9773 369.151 15.932 369.151ZM14.548 366.526L14.548 366.306C14.548 366.109 14.4507 366.01 14.256 366.01L14.048 366.01C13.856 366.01 13.76 366.109 13.76 366.306L13.76 366.542C13.76 366.641 13.7827 366.714 13.828 366.762C13.8733 366.807 13.9467 366.83 14.048 366.83L14.164 366.83C14.2093 366.83 14.232 366.853 14.232 366.898L14.232 367.154C14.232 367.199 14.2093 367.222 14.164 367.222L14.04 367.222C13.8453 367.222 13.6947 367.167 13.588 367.058C13.4813 366.949 13.428 366.795 13.428 366.598L13.428 366.25C13.428 366.053 13.4813 365.899 13.588 365.79C13.6947 365.681 13.8453 365.626 14.04 365.626L14.26 365.626C14.4947 365.626 14.644 365.733 14.708 365.946C14.7587 365.733 14.908 365.626 15.156 365.626L15.388 365.626C15.5827 365.626 15.7333 365.681 15.84 365.79C15.9467 365.899 16 366.053 16 366.25L16 366.598C16 366.795 15.9467 366.949 15.84 367.058C15.7333 367.167 15.5827 367.222 15.388 367.222L15.248 367.222C15.2 367.222 15.176 367.199 15.176 367.154L15.176 366.898C15.176 366.853 15.2 366.83 15.248 366.83L15.38 366.83C15.4787 366.83 15.552 366.807 15.6 366.762C15.6453 366.714 15.668 366.641 15.668 366.542L15.668 366.306C15.668 366.109 15.572 366.01 15.38 366.01L15.16 366.01C14.9653 366.01 14.868 366.109 14.868 366.306L14.868 366.526C14.868 366.571 14.8453 366.594 14.8 366.594L14.62 366.594C14.572 366.594 14.548 366.571 14.548 366.526ZM14.696 364.519L14.696 363.959L14.064 363.959C13.8667 363.959 13.768 364.056 13.768 364.251L13.768 364.519C13.768 364.711 13.8667 364.807 14.064 364.807L14.404 364.807C14.5987 364.807 14.696 364.711 14.696 364.519ZM16 364.195L16 365.007C16 365.057 15.9773 365.083 15.932 365.083L15.724 365.083C15.6813 365.083 15.66 365.057 15.66 365.007L15.66 364.251C15.66 364.059 15.5613 363.963 15.364 363.963L15.04 363.963L15.04 364.579C15.04 364.776 14.9867 364.929 14.88 365.039C14.7707 365.148 14.6187 365.203 14.424 365.203L14.048 365.203C13.8507 365.203 13.6987 365.148 13.592 365.039C13.4827 364.929 13.428 364.776 13.428 364.579L13.428 364.195C13.428 363.997 13.4827 363.844 13.592 363.735C13.6987 363.625 13.8507 363.571 14.048 363.571L15.38 363.571C15.5747 363.571 15.7267 363.625 15.836 363.735C15.9453 363.844 16 363.997 16 364.195ZM15.66 362.42L15.66 362.136C15.66 361.944 15.5613 361.848 15.364 361.848L14.064 361.848C13.8667 361.848 13.768 361.944 13.768 362.136L13.768 362.42C13.768 362.612 13.8667 362.708 14.064 362.708L15.364 362.708C15.5613 362.708 15.66 362.612 15.66 362.42ZM16 362.08L16 362.48C16 362.677 15.9453 362.831 15.836 362.94C15.7267 363.049 15.5747 363.104 15.38 363.104L14.048 363.104C13.8507 363.104 13.6987 363.049 13.592 362.94C13.4827 362.831 13.428 362.677 13.428 362.48L13.428 362.08C13.428 361.885 13.4827 361.733 13.592 361.624C13.6987 361.515 13.8507 361.46 14.048 361.46L15.38 361.46C15.5747 361.46 15.7267 361.515 15.836 361.624C15.9453 361.733 16 361.885 16 362.08ZM14.548 360.339L14.548 360.119C14.548 359.921 14.4507 359.823 14.256 359.823L14.048 359.823C13.856 359.823 13.76 359.921 13.76 360.119L13.76 360.355C13.76 360.453 13.7827 360.527 13.828 360.575C13.8733 360.62 13.9467 360.643 14.048 360.643L14.164 360.643C14.2093 360.643 14.232 360.665 14.232 360.711L14.232 360.967C14.232 361.012 14.2093 361.035 14.164 361.035L14.04 361.035C13.8453 361.035 13.6947 360.98 13.588 360.871C13.4813 360.761 13.428 360.608 13.428 360.411L13.428 360.063C13.428 359.865 13.4813 359.712 13.588 359.603C13.6947 359.493 13.8453 359.439 14.04 359.439L14.26 359.439C14.4947 359.439 14.644 359.545 14.708 359.759C14.7587 359.545 14.908 359.439 15.156 359.439L15.388 359.439C15.5827 359.439 15.7333 359.493 15.84 359.603C15.9467 359.712 16 359.865 16 360.063L16 360.411C16 360.608 15.9467 360.761 15.84 360.871C15.7333 360.98 15.5827 361.035 15.388 361.035L15.248 361.035C15.2 361.035 15.176 361.012 15.176 360.967L15.176 360.711C15.176 360.665 15.2 360.643 15.248 360.643L15.38 360.643C15.4787 360.643 15.552 360.62 15.6 360.575C15.6453 360.527 15.668 360.453 15.668 360.355L15.668 360.119C15.668 359.921 15.572 359.823 15.38 359.823L15.16 359.823C14.9653 359.823 14.868 359.921 14.868 360.119L14.868 360.339C14.868 360.384 14.8453 360.407 14.8 360.407L14.62 360.407C14.572 360.407 14.548 360.384 14.548 360.339ZM15.932 358.999L15.564 358.999C15.3987 358.999 15.26 358.928 15.148 358.787L14.532 358.031C14.4307 357.903 14.3133 357.839 14.18 357.839L14.048 357.839C13.856 357.839 13.76 357.939 13.76 358.139L13.76 358.335C13.76 358.436 13.7827 358.51 13.828 358.555C13.8733 358.6 13.9467 358.623 14.048 358.623L14.196 358.623C14.244 358.623 14.268 358.646 14.268 358.691L14.268 358.947C14.268 358.992 14.244 359.015 14.196 359.015L14.04 359.015C13.8453 359.015 13.6947 358.96 13.588 358.851C13.4813 358.742 13.428 358.588 13.428 358.391L13.428 358.079C13.428 357.884 13.4813 357.732 13.588 357.623C13.6947 357.514 13.8453 357.459 14.04 357.459L14.204 357.459C14.412 357.459 14.5827 357.54 14.716 357.703L15.344 358.471C15.3947 358.532 15.4547 358.563 15.524 358.563L15.652 358.563L15.652 357.523C15.652 357.475 15.6747 357.451 15.72 357.451L15.932 357.451C15.9773 357.451 16 357.475 16 357.523L16 358.927C16 358.975 15.9773 358.999 15.932 358.999ZM15.66 356.534L15.66 355.97C15.66 355.778 15.5613 355.682 15.364 355.682L14.064 355.682C13.8667 355.682 13.768 355.778 13.768 355.97L13.768 356.534C13.768 356.563 13.7813 356.578 13.808 356.578L15.616 356.578C15.6453 356.578 15.66 356.563 15.66 356.534ZM15.932 356.966L13.496 356.966C13.4507 356.966 13.428 356.943 13.428 356.898L13.428 355.914C13.428 355.719 13.4827 355.567 13.592 355.458C13.6987 355.346 13.8507 355.29 14.048 355.29L15.38 355.29C15.5747 355.29 15.7267 355.346 15.836 355.458C15.9453 355.567 16 355.719 16 355.914L16 356.898C16 356.943 15.9773 356.966 15.932 356.966ZM16 353.63L16 353.926C16 353.947 15.9933 353.963 15.98 353.974C15.9667 353.982 15.9493 353.981 15.928 353.97L14.668 353.31L13.5 353.942C13.4813 353.953 13.4653 353.954 13.452 353.946C13.436 353.935 13.428 353.919 13.428 353.898L13.428 353.614C13.428 353.561 13.4507 353.523 13.496 353.502L14.424 353.042L14.424 353.026L13.496 352.566C13.4507 352.542 13.428 352.507 13.428 352.462L13.428 352.166C13.428 352.145 13.436 352.13 13.452 352.122C13.468 352.111 13.4853 352.11 13.504 352.118L14.668 352.758L15.924 352.098C15.9453 352.087 15.964 352.086 15.98 352.094C15.9933 352.102 16 352.118 16 352.142L16 352.442C16 352.485 15.9787 352.515 15.936 352.534L14.96 353.026L14.96 353.042L15.936 353.534C15.9787 353.553 16 353.585 16 353.63ZM16 351.524L16 351.82C16 351.842 15.9933 351.858 15.98 351.868C15.9667 351.876 15.9493 351.875 15.928 351.864L14.668 351.204L13.5 351.836C13.4813 351.847 13.4653 351.848 13.452 351.84C13.436 351.83 13.428 351.814 13.428 351.792L13.428 351.508C13.428 351.455 13.4507 351.418 13.496 351.396L14.424 350.936L14.424 350.92L13.496 350.46C13.4507 350.436 13.428 350.402 13.428 350.356L13.428 350.06C13.428 350.039 13.436 350.024 13.452 350.016C13.468 350.006 13.4853 350.004 13.504 350.012L14.668 350.652L15.924 349.992C15.9453 349.982 15.964 349.98 15.98 349.988C15.9933 349.996 16 350.012 16 350.036L16 350.336C16 350.379 15.9787 350.41 15.936 350.428L14.96 350.92L14.96 350.936L15.936 351.428C15.9787 351.447 16 351.479 16 351.524ZM15.66 348.967L15.66 348.651C15.66 348.552 15.6373 348.48 15.592 348.435C15.5467 348.387 15.4747 348.363 15.376 348.363L15.16 348.363C14.96 348.363 14.86 348.459 14.86 348.651L14.86 348.967C14.86 349.159 14.96 349.255 15.16 349.255L15.376 349.255C15.4747 349.255 15.5467 349.232 15.592 349.187C15.6373 349.139 15.66 349.066 15.66 348.967ZM14.548 348.967L14.548 348.651C14.548 348.459 14.448 348.363 14.248 348.363L14.052 348.363C13.9533 348.363 13.8813 348.387 13.836 348.435C13.7907 348.48 13.768 348.552 13.768 348.651L13.768 348.967C13.768 349.066 13.7907 349.139 13.836 349.187C13.8813 349.232 13.9533 349.255 14.052 349.255L14.248 349.255C14.448 349.255 14.548 349.159 14.548 348.967ZM16 348.595L16 349.019C16 349.216 15.9493 349.37 15.848 349.479C15.7467 349.588 15.5987 349.643 15.404 349.643L15.188 349.643C14.9427 349.643 14.7827 349.551 14.708 349.367C14.6333 349.551 14.472 349.643 14.224 349.643L14.02 349.643C13.828 349.643 13.6813 349.588 13.58 349.479C13.4787 349.37 13.428 349.216 13.428 349.019L13.428 348.595C13.428 348.398 13.4787 348.246 13.58 348.139C13.6813 348.03 13.828 347.975 14.02 347.975L14.224 347.975C14.3467 347.975 14.4507 348 14.536 348.051C14.6213 348.099 14.6787 348.164 14.708 348.247C14.78 348.066 14.9413 347.975 15.192 347.975L15.404 347.975C15.5987 347.975 15.7467 348.03 15.848 348.139C15.9493 348.246 16 348.398 16 348.595ZM14.696 346.866L14.696 346.306L14.064 346.306C13.8667 346.306 13.768 346.404 13.768 346.598L13.768 346.866C13.768 347.058 13.8667 347.154 14.064 347.154L14.404 347.154C14.5987 347.154 14.696 347.058 14.696 346.866ZM16 346.542L16 347.354C16 347.405 15.9773 347.43 15.932 347.43L15.724 347.43C15.6813 347.43 15.66 347.405 15.66 347.354L15.66 346.598C15.66 346.406 15.5613 346.31 15.364 346.31L15.04 346.31L15.04 346.926C15.04 347.124 14.9867 347.277 14.88 347.386C14.7707 347.496 14.6187 347.55 14.424 347.55L14.048 347.55C13.8507 347.55 13.6987 347.496 13.592 347.386C13.4827 347.277 13.428 347.124 13.428 346.926L13.428 346.542C13.428 346.345 13.4827 346.192 13.592 346.082C13.6987 345.973 13.8507 345.918 14.048 345.918L15.38 345.918C15.5747 345.918 15.7267 345.973 15.836 346.082C15.9453 346.192 16 346.345 16 346.542ZM15.932 345.476L15.564 345.476C15.3987 345.476 15.26 345.405 15.148 345.264L14.532 344.508C14.4307 344.38 14.3133 344.316 14.18 344.316L14.048 344.316C13.856 344.316 13.76 344.416 13.76 344.616L13.76 344.812C13.76 344.913 13.7827 344.986 13.828 345.032C13.8733 345.077 13.9467 345.1 14.048 345.1L14.196 345.1C14.244 345.1 14.268 345.122 14.268 345.168L14.268 345.424C14.268 345.469 14.244 345.492 14.196 345.492L14.04 345.492C13.8453 345.492 13.6947 345.437 13.588 345.328C13.4813 345.218 13.428 345.065 13.428 344.868L13.428 344.556C13.428 344.361 13.4813 344.209 13.588 344.1C13.6947 343.99 13.8453 343.936 14.04 343.936L14.204 343.936C14.412 343.936 14.5827 344.017 14.716 344.18L15.344 344.948C15.3947 345.009 15.4547 345.04 15.524 345.04L15.652 345.04L15.652 344C15.652 343.952 15.6747 343.928 15.72 343.928L15.932 343.928C15.9773 343.928 16 343.952 16 344L16 345.404C16 345.452 15.9773 345.476 15.932 345.476ZM14.548 342.85L14.548 342.63C14.548 342.433 14.4507 342.334 14.256 342.334L14.048 342.334C13.856 342.334 13.76 342.433 13.76 342.63L13.76 342.866C13.76 342.965 13.7827 343.038 13.828 343.086C13.8733 343.132 13.9467 343.154 14.048 343.154L14.164 343.154C14.2093 343.154 14.232 343.177 14.232 343.222L14.232 343.478C14.232 343.524 14.2093 343.546 14.164 343.546L14.04 343.546C13.8453 343.546 13.6947 343.492 13.588 343.382C13.4813 343.273 13.428 343.12 13.428 342.922L13.428 342.574C13.428 342.377 13.4813 342.224 13.588 342.114C13.6947 342.005 13.8453 341.95 14.04 341.95L14.26 341.95C14.4947 341.95 14.644 342.057 14.708 342.27C14.7587 342.057 14.908 341.95 15.156 341.95L15.388 341.95C15.5827 341.95 15.7333 342.005 15.84 342.114C15.9467 342.224 16 342.377 16 342.574L16 342.922C16 343.12 15.9467 343.273 15.84 343.382C15.7333 343.492 15.5827 343.546 15.388 343.546L15.248 343.546C15.2 343.546 15.176 343.524 15.176 343.478L15.176 343.222C15.176 343.177 15.2 343.154 15.248 343.154L15.38 343.154C15.4787 343.154 15.552 343.132 15.6 343.086C15.6453 343.038 15.668 342.965 15.668 342.866L15.668 342.63C15.668 342.433 15.572 342.334 15.38 342.334L15.16 342.334C14.9653 342.334 14.868 342.433 14.868 342.63L14.868 342.85C14.868 342.896 14.8453 342.918 14.8 342.918L14.62 342.918C14.572 342.918 14.548 342.896 14.548 342.85ZM15.66 340.811L15.66 340.495C15.66 340.396 15.6373 340.324 15.592 340.279C15.5467 340.231 15.4747 340.207 15.376 340.207L15.16 340.207C14.96 340.207 14.86 340.303 14.86 340.495L14.86 340.811C14.86 341.003 14.96 341.099 15.16 341.099L15.376 341.099C15.4747 341.099 15.5467 341.076 15.592 341.031C15.6373 340.983 15.66 340.909 15.66 340.811ZM14.548 340.811L14.548 340.495C14.548 340.303 14.448 340.207 14.248 340.207L14.052 340.207C13.9533 340.207 13.8813 340.231 13.836 340.279C13.7907 340.324 13.768 340.396 13.768 340.495L13.768 340.811C13.768 340.909 13.7907 340.983 13.836 341.031C13.8813 341.076 13.9533 341.099 14.052 341.099L14.248 341.099C14.448 341.099 14.548 341.003 14.548 340.811ZM16 340.439L16 340.863C16 341.06 15.9493 341.213 15.848 341.323C15.7467 341.432 15.5987 341.487 15.404 341.487L15.188 341.487C14.9427 341.487 14.7827 341.395 14.708 341.211C14.6333 341.395 14.472 341.487 14.224 341.487L14.02 341.487C13.828 341.487 13.6813 341.432 13.58 341.323C13.4787 341.213 13.428 341.06 13.428 340.863L13.428 340.439C13.428 340.241 13.4787 340.089 13.58 339.983C13.6813 339.873 13.828 339.819 14.02 339.819L14.224 339.819C14.3467 339.819 14.4507 339.844 14.536 339.895C14.6213 339.943 14.6787 340.008 14.708 340.091C14.78 339.909 14.9413 339.819 15.192 339.819L15.404 339.819C15.5987 339.819 15.7467 339.873 15.848 339.983C15.9493 340.089 16 340.241 16 340.439ZM14.696 338.71L14.696 338.15L14.064 338.15C13.8667 338.15 13.768 338.247 13.768 338.442L13.768 338.71C13.768 338.902 13.8667 338.998 14.064 338.998L14.404 338.998C14.5987 338.998 14.696 338.902 14.696 338.71ZM16 338.386L16 339.198C16 339.249 15.9773 339.274 15.932 339.274L15.724 339.274C15.6813 339.274 15.66 339.249 15.66 339.198L15.66 338.442C15.66 338.25 15.5613 338.154 15.364 338.154L15.04 338.154L15.04 338.77C15.04 338.967 14.9867 339.121 14.88 339.23C14.7707 339.339 14.6187 339.394 14.424 339.394L14.048 339.394C13.8507 339.394 13.6987 339.339 13.592 339.23C13.4827 339.121 13.428 338.967 13.428 338.77L13.428 338.386C13.428 338.189 13.4827 338.035 13.592 337.926C13.6987 337.817 13.8507 337.762 14.048 337.762L15.38 337.762C15.5747 337.762 15.7267 337.817 15.836 337.926C15.9453 338.035 16 338.189 16 338.386ZM15.66 336.803L15.66 336.239C15.66 336.047 15.5613 335.951 15.364 335.951L14.064 335.951C13.8667 335.951 13.768 336.047 13.768 336.239L13.768 336.803C13.768 336.833 13.7813 336.847 13.808 336.847L15.616 336.847C15.6453 336.847 15.66 336.833 15.66 336.803ZM15.932 337.235L13.496 337.235C13.4507 337.235 13.428 337.213 13.428 337.167L13.428 336.183C13.428 335.989 13.4827 335.837 13.592 335.727C13.6987 335.615 13.8507 335.559 14.048 335.559L15.38 335.559C15.5747 335.559 15.7267 335.615 15.836 335.727C15.9453 335.837 16 335.989 16 336.183L16 337.167C16 337.213 15.9773 337.235 15.932 337.235ZM14.548 334.425L14.548 334.205C14.548 334.007 14.4507 333.909 14.256 333.909L14.048 333.909C13.856 333.909 13.76 334.007 13.76 334.205L13.76 334.441C13.76 334.539 13.7827 334.613 13.828 334.661C13.8733 334.706 13.9467 334.729 14.048 334.729L14.164 334.729C14.2093 334.729 14.232 334.751 14.232 334.797L14.232 335.053C14.232 335.098 14.2093 335.121 14.164 335.121L14.04 335.121C13.8453 335.121 13.6947 335.066 13.588 334.957C13.4813 334.847 13.428 334.694 13.428 334.497L13.428 334.149C13.428 333.951 13.4813 333.798 13.588 333.689C13.6947 333.579 13.8453 333.525 14.04 333.525L14.26 333.525C14.4947 333.525 14.644 333.631 14.708 333.845C14.7587 333.631 14.908 333.525 15.156 333.525L15.388 333.525C15.5827 333.525 15.7333 333.579 15.84 333.689C15.9467 333.798 16 333.951 16 334.149L16 334.497C16 334.694 15.9467 334.847 15.84 334.957C15.7333 335.066 15.5827 335.121 15.388 335.121L15.248 335.121C15.2 335.121 15.176 335.098 15.176 335.053L15.176 334.797C15.176 334.751 15.2 334.729 15.248 334.729L15.38 334.729C15.4787 334.729 15.552 334.706 15.6 334.661C15.6453 334.613 15.668 334.539 15.668 334.441L15.668 334.205C15.668 334.007 15.572 333.909 15.38 333.909L15.16 333.909C14.9653 333.909 14.868 334.007 14.868 334.205L14.868 334.425C14.868 334.47 14.8453 334.493 14.8 334.493L14.62 334.493C14.572 334.493 14.548 334.47 14.548 334.425ZM14.548 331.456L14.548 331.236C14.548 331.039 14.4507 330.94 14.256 330.94L14.048 330.94C13.856 330.94 13.76 331.039 13.76 331.236L13.76 331.472C13.76 331.571 13.7827 331.644 13.828 331.692C13.8733 331.737 13.9467 331.76 14.048 331.76L14.164 331.76C14.2093 331.76 14.232 331.783 14.232 331.828L14.232 332.084C14.232 332.129 14.2093 332.152 14.164 332.152L14.04 332.152C13.8453 332.152 13.6947 332.097 13.588 331.988C13.4813 331.879 13.428 331.725 13.428 331.528L13.428 331.18C13.428 330.983 13.4813 330.829 13.588 330.72C13.6947 330.611 13.8453 330.556 14.04 330.556L14.26 330.556C14.4947 330.556 14.644 330.663 14.708 330.876C14.7587 330.663 14.908 330.556 15.156 330.556L15.388 330.556C15.5827 330.556 15.7333 330.611 15.84 330.72C15.9467 330.829 16 330.983 16 331.18L16 331.528C16 331.725 15.9467 331.879 15.84 331.988C15.7333 332.097 15.5827 332.152 15.388 332.152L15.248 332.152C15.2 332.152 15.176 332.129 15.176 332.084L15.176 331.828C15.176 331.783 15.2 331.76 15.248 331.76L15.38 331.76C15.4787 331.76 15.552 331.737 15.6 331.692C15.6453 331.644 15.668 331.571 15.668 331.472L15.668 331.236C15.668 331.039 15.572 330.94 15.38 330.94L15.16 330.94C14.9653 330.94 14.868 331.039 14.868 331.236L14.868 331.456C14.868 331.501 14.8453 331.524 14.8 331.524L14.62 331.524C14.572 331.524 14.548 331.501 14.548 331.456ZM15.168 329L13.752 329L15.168 329.788L15.168 329ZM16 328.696L16 328.932C16 328.978 15.9773 329 15.932 329L15.512 329L15.512 330.056C15.512 330.134 15.4733 330.172 15.396 330.172L15.272 330.172C15.2133 330.172 15.1613 330.16 15.116 330.136L13.528 329.244C13.488 329.223 13.4613 329.203 13.448 329.184C13.4347 329.166 13.428 329.138 13.428 329.1L13.428 328.748C13.428 328.671 13.4667 328.632 13.544 328.632L15.168 328.632L15.168 328.34C15.168 328.295 15.1907 328.272 15.236 328.272L15.436 328.272C15.4867 328.272 15.512 328.295 15.512 328.34L15.512 328.632L15.932 328.632C15.9773 328.632 16 328.654 16 328.696ZM15.66 327.283L15.66 326.967C15.66 326.869 15.6373 326.797 15.592 326.751C15.5467 326.703 15.4747 326.679 15.376 326.679L15.16 326.679C14.96 326.679 14.86 326.775 14.86 326.967L14.86 327.283C14.86 327.475 14.96 327.571 15.16 327.571L15.376 327.571C15.4747 327.571 15.5467 327.549 15.592 327.503C15.6373 327.455 15.66 327.382 15.66 327.283ZM14.548 327.283L14.548 326.967C14.548 326.775 14.448 326.679 14.248 326.679L14.052 326.679C13.9533 326.679 13.8813 326.703 13.836 326.751C13.7907 326.797 13.768 326.869 13.768 326.967L13.768 327.283C13.768 327.382 13.7907 327.455 13.836 327.503C13.8813 327.549 13.9533 327.571 14.052 327.571L14.248 327.571C14.448 327.571 14.548 327.475 14.548 327.283ZM16 326.911L16 327.335C16 327.533 15.9493 327.686 15.848 327.795C15.7467 327.905 15.5987 327.959 15.404 327.959L15.188 327.959C14.9427 327.959 14.7827 327.867 14.708 327.683C14.6333 327.867 14.472 327.959 14.224 327.959L14.02 327.959C13.828 327.959 13.6813 327.905 13.58 327.795C13.4787 327.686 13.428 327.533 13.428 327.335L13.428 326.911C13.428 326.714 13.4787 326.562 13.58 326.455C13.6813 326.346 13.828 326.291 14.02 326.291L14.224 326.291C14.3467 326.291 14.4507 326.317 14.536 326.367C14.6213 326.415 14.6787 326.481 14.708 326.563C14.78 326.382 14.9413 326.291 15.192 326.291L15.404 326.291C15.5987 326.291 15.7467 326.346 15.848 326.455C15.9493 326.562 16 326.714 16 326.911ZM15.932 325.851L15.564 325.851C15.3987 325.851 15.26 325.78 15.148 325.639L14.532 324.883C14.4307 324.755 14.3133 324.691 14.18 324.691L14.048 324.691C13.856 324.691 13.76 324.791 13.76 324.991L13.76 325.187C13.76 325.288 13.7827 325.361 13.828 325.407C13.8733 325.452 13.9467 325.475 14.048 325.475L14.196 325.475C14.244 325.475 14.268 325.497 14.268 325.543L14.268 325.799C14.268 325.844 14.244 325.867 14.196 325.867L14.04 325.867C13.8453 325.867 13.6947 325.812 13.588 325.703C13.4813 325.593 13.428 325.44 13.428 325.243L13.428 324.931C13.428 324.736 13.4813 324.584 13.588 324.475C13.6947 324.365 13.8453 324.311 14.04 324.311L14.204 324.311C14.412 324.311 14.5827 324.392 14.716 324.555L15.344 325.323C15.3947 325.384 15.4547 325.415 15.524 325.415L15.652 325.415L15.652 324.375C15.652 324.327 15.6747 324.303 15.72 324.303L15.932 324.303C15.9773 324.303 16 324.327 16 324.375L16 325.779C16 325.827 15.9773 325.851 15.932 325.851ZM14.696 323.233L14.696 322.673L14.064 322.673C13.8667 322.673 13.768 322.771 13.768 322.965L13.768 323.233C13.768 323.425 13.8667 323.521 14.064 323.521L14.404 323.521C14.5987 323.521 14.696 323.425 14.696 323.233ZM16 322.909L16 323.721C16 323.772 15.9773 323.797 15.932 323.797L15.724 323.797C15.6813 323.797 15.66 323.772 15.66 323.721L15.66 322.965C15.66 322.773 15.5613 322.677 15.364 322.677L15.04 322.677L15.04 323.293C15.04 323.491 14.9867 323.644 14.88 323.753C14.7707 323.863 14.6187 323.917 14.424 323.917L14.048 323.917C13.8507 323.917 13.6987 323.863 13.592 323.753C13.4827 323.644 13.428 323.491 13.428 323.293L13.428 322.909C13.428 322.712 13.4827 322.559 13.592 322.449C13.6987 322.34 13.8507 322.285 14.048 322.285L15.38 322.285C15.5747 322.285 15.7267 322.34 15.836 322.449C15.9453 322.559 16 322.712 16 322.909ZM15.932 320.89L15.564 320.89C15.3987 320.89 15.26 320.819 15.148 320.678L14.532 319.922C14.4307 319.794 14.3133 319.73 14.18 319.73L14.048 319.73C13.856 319.73 13.76 319.83 13.76 320.03L13.76 320.226C13.76 320.327 13.7827 320.4 13.828 320.446C13.8733 320.491 13.9467 320.514 14.048 320.514L14.196 320.514C14.244 320.514 14.268 320.536 14.268 320.582L14.268 320.838C14.268 320.883 14.244 320.906 14.196 320.906L14.04 320.906C13.8453 320.906 13.6947 320.851 13.588 320.742C13.4813 320.632 13.428 320.479 13.428 320.282L13.428 319.97C13.428 319.775 13.4813 319.623 13.588 319.514C13.6947 319.404 13.8453 319.35 14.04 319.35L14.204 319.35C14.412 319.35 14.5827 319.431 14.716 319.594L15.344 320.362C15.3947 320.423 15.4547 320.454 15.524 320.454L15.652 320.454L15.652 319.414C15.652 319.366 15.6747 319.342 15.72 319.342L15.932 319.342C15.9773 319.342 16 319.366 16 319.414L16 320.818C16 320.866 15.9773 320.89 15.932 320.89ZM14.548 318.264L14.548 318.044C14.548 317.847 14.4507 317.748 14.256 317.748L14.048 317.748C13.856 317.748 13.76 317.847 13.76 318.044L13.76 318.28C13.76 318.379 13.7827 318.452 13.828 318.5C13.8733 318.546 13.9467 318.568 14.048 318.568L14.164 318.568C14.2093 318.568 14.232 318.591 14.232 318.636L14.232 318.892C14.232 318.938 14.2093 318.96 14.164 318.96L14.04 318.96C13.8453 318.96 13.6947 318.906 13.588 318.796C13.4813 318.687 13.428 318.534 13.428 318.336L13.428 317.988C13.428 317.791 13.4813 317.638 13.588 317.528C13.6947 317.419 13.8453 317.364 14.04 317.364L14.26 317.364C14.4947 317.364 14.644 317.471 14.708 317.684C14.7587 317.471 14.908 317.364 15.156 317.364L15.388 317.364C15.5827 317.364 15.7333 317.419 15.84 317.528C15.9467 317.638 16 317.791 16 317.988L16 318.336C16 318.534 15.9467 318.687 15.84 318.796C15.7333 318.906 15.5827 318.96 15.388 318.96L15.248 318.96C15.2 318.96 15.176 318.938 15.176 318.892L15.176 318.636C15.176 318.591 15.2 318.568 15.248 318.568L15.38 318.568C15.4787 318.568 15.552 318.546 15.6 318.5C15.6453 318.452 15.668 318.379 15.668 318.28L15.668 318.044C15.668 317.847 15.572 317.748 15.38 317.748L15.16 317.748C14.9653 317.748 14.868 317.847 14.868 318.044L14.868 318.264C14.868 318.31 14.8453 318.332 14.8 318.332L14.62 318.332C14.572 318.332 14.548 318.31 14.548 318.264ZM15.932 316.925L15.564 316.925C15.3987 316.925 15.26 316.854 15.148 316.713L14.532 315.957C14.4307 315.829 14.3133 315.765 14.18 315.765L14.048 315.765C13.856 315.765 13.76 315.865 13.76 316.065L13.76 316.261C13.76 316.362 13.7827 316.435 13.828 316.481C13.8733 316.526 13.9467 316.549 14.048 316.549L14.196 316.549C14.244 316.549 14.268 316.571 14.268 316.617L14.268 316.873C14.268 316.918 14.244 316.941 14.196 316.941L14.04 316.941C13.8453 316.941 13.6947 316.886 13.588 316.777C13.4813 316.667 13.428 316.514 13.428 316.317L13.428 316.005C13.428 315.81 13.4813 315.658 13.588 315.549C13.6947 315.439 13.8453 315.385 14.04 315.385L14.204 315.385C14.412 315.385 14.5827 315.466 14.716 315.629L15.344 316.397C15.3947 316.458 15.4547 316.489 15.524 316.489L15.652 316.489L15.652 315.449C15.652 315.401 15.6747 315.377 15.72 315.377L15.932 315.377C15.9773 315.377 16 315.401 16 315.449L16 316.853C16 316.901 15.9773 316.925 15.932 316.925ZM15.66 314.268L15.66 313.984C15.66 313.792 15.5613 313.696 15.364 313.696L14.064 313.696C13.8667 313.696 13.768 313.792 13.768 313.984L13.768 314.268C13.768 314.46 13.8667 314.556 14.064 314.556L15.364 314.556C15.5613 314.556 15.66 314.46 15.66 314.268ZM16 313.928L16 314.328C16 314.525 15.9453 314.678 15.836 314.788C15.7267 314.897 15.5747 314.952 15.38 314.952L14.048 314.952C13.8507 314.952 13.6987 314.897 13.592 314.788C13.4827 314.678 13.428 314.525 13.428 314.328L13.428 313.928C13.428 313.733 13.4827 313.581 13.592 313.472C13.6987 313.362 13.8507 313.308 14.048 313.308L15.38 313.308C15.5747 313.308 15.7267 313.362 15.836 313.472C15.9453 313.581 16 313.733 16 313.928Z" fill="#F75049"/>
<g opacity="0.2">
<rect width="3" height="3" fill="#F75049"/>
<rect x="4" width="4" height="3" fill="#F75049"/>
</g>
<g opacity="0.2">
<rect y="5" width="5" height="3" fill="#F75049"/>
<rect x="6" y="5" width="2" height="3" fill="#F75049"/>
</g>
<g opacity="0.2">
<rect y="10" width="6" height="3" fill="#F75049"/>
<rect x="7" y="10" width="1" height="3" fill="#F75049"/>
</g>
<g opacity="0.2">
<rect y="15" width="3" height="3" fill="#F75049"/>
<rect x="4" y="15" width="4" height="3" fill="#F75049"/>
</g>
<g opacity="0.2">
<rect y="20" width="4" height="3" fill="#F75049"/>
<rect x="5" y="20" width="3" height="3" fill="#F75049"/>
</g>
<g opacity="0.2">
<rect y="25" width="3" height="3" fill="#F75049"/>
<rect x="4" y="25" width="4" height="3" fill="#F75049"/>
</g>
<g opacity="0.2">
<rect y="30" width="3" height="3" fill="#F75049"/>
<rect x="4" y="30" width="4" height="3" fill="#F75049"/>
</g>
<g opacity="0.2">
<rect y="35" width="5" height="3" fill="#F75049"/>
<rect x="6" y="35" width="2" height="3" fill="#F75049"/>
</g>
<g opacity="0.2">
<rect y="40" width="6" height="3" fill="#F75049"/>
<rect x="7" y="40" width="1" height="3" fill="#F75049"/>
</g>
<g opacity="0.2">
<rect y="45" width="3" height="3" fill="#F75049"/>
<rect x="4" y="45" width="4" height="3" fill="#F75049"/>
</g>
<g opacity="0.2">
<rect y="50" width="4" height="3" fill="#F75049"/>
<rect x="5" y="50" width="3" height="3" fill="#F75049"/>
</g>
<g opacity="0.2">
<rect y="55" width="3" height="3" fill="#F75049"/>
<rect x="4" y="55" width="4" height="3" fill="#F75049"/>
</g>
<g opacity="0.2">
<rect y="60" width="3" height="3" fill="#F75049"/>
<rect x="4" y="60" width="4" height="3" fill="#F75049"/>
</g>
<g opacity="0.2">
<rect y="65" width="5" height="3" fill="#F75049"/>
<rect x="6" y="65" width="2" height="3" fill="#F75049"/>
</g>
<g opacity="0.2">
<rect y="70" width="6" height="3" fill="#F75049"/>
<rect x="7" y="70" width="1" height="3" fill="#F75049"/>
</g>
<g opacity="0.2">
<rect y="75" width="3" height="3" fill="#F75049"/>
<rect x="4" y="75" width="4" height="3" fill="#F75049"/>
</g>
<g opacity="0.2">
<rect y="80" width="4" height="3" fill="#F75049"/>
<rect x="5" y="80" width="3" height="3" fill="#F75049"/>
</g>
<g opacity="0.2">
<rect y="85" width="3" height="3" fill="#F75049"/>
<rect x="4" y="85" width="4" height="3" fill="#F75049"/>
</g>
<g opacity="0.2">
<rect y="90" width="3" height="3" fill="#F75049"/>
<rect x="4" y="90" width="4" height="3" fill="#F75049"/>
</g>
<g opacity="0.2">
<rect y="95" width="5" height="3" fill="#F75049"/>
<rect x="6" y="95" width="2" height="3" fill="#F75049"/>
</g>
<g opacity="0.2">
<rect y="100" width="6" height="3" fill="#F75049"/>
<rect x="7" y="100" width="1" height="3" fill="#F75049"/>
</g>
<rect y="105" width="3" height="3" fill="#F75049"/>
<rect x="4" y="105" width="4" height="3" fill="#F75049"/>
<g opacity="0.2">
<rect y="110" width="4" height="3" fill="#F75049"/>
<rect x="5" y="110" width="3" height="3" fill="#F75049"/>
</g>
<g opacity="0.2">
<rect y="115" width="3" height="3" fill="#F75049"/>
<rect x="4" y="115" width="4" height="3" fill="#F75049"/>
</g>
<g opacity="0.2">
<rect y="120" width="3" height="3" fill="#F75049"/>
<rect x="4" y="120" width="4" height="3" fill="#F75049"/>
</g>
<g opacity="0.2">
<rect y="125" width="5" height="3" fill="#F75049"/>
<rect x="6" y="125" width="2" height="3" fill="#F75049"/>
</g>
<g opacity="0.2">
<rect y="130" width="6" height="3" fill="#F75049"/>
<rect x="7" y="130" width="1" height="3" fill="#F75049"/>
</g>
<g opacity="0.2">
<rect y="135" width="3" height="3" fill="#F75049"/>
<rect x="4" y="135" width="4" height="3" fill="#F75049"/>
</g>
<g opacity="0.2">
<rect y="140" width="4" height="3" fill="#F75049"/>
<rect x="5" y="140" width="3" height="3" fill="#F75049"/>
</g>
<g opacity="0.2">
<rect y="145" width="3" height="3" fill="#F75049"/>
<rect x="4" y="145" width="4" height="3" fill="#F75049"/>
</g>
<g opacity="0.2">
<rect y="150" width="3" height="3" fill="#F75049"/>
<rect x="4" y="150" width="4" height="3" fill="#F75049"/>
</g>
<g opacity="0.2">
<rect y="155" width="5" height="3" fill="#F75049"/>
<rect x="6" y="155" width="2" height="3" fill="#F75049"/>
</g>
<g opacity="0.2">
<rect y="160" width="6" height="3" fill="#F75049"/>
<rect x="7" y="160" width="1" height="3" fill="#F75049"/>
</g>
<g opacity="0.2">
<rect y="165" width="3" height="3" fill="#F75049"/>
<rect x="4" y="165" width="4" height="3" fill="#F75049"/>
</g>
<g opacity="0.2">
<rect y="170" width="4" height="3" fill="#F75049"/>
<rect x="5" y="170" width="3" height="3" fill="#F75049"/>
</g>
<g opacity="0.2">
<rect y="175" width="3" height="3" fill="#F75049"/>
<rect x="4" y="175" width="4" height="3" fill="#F75049"/>
</g>
<g opacity="0.2">
<rect y="180" width="3" height="3" fill="#F75049"/>
<rect x="4" y="180" width="4" height="3" fill="#F75049"/>
</g>
<g opacity="0.2">
<rect y="185" width="5" height="3" fill="#F75049"/>
<rect x="6" y="185" width="2" height="3" fill="#F75049"/>
</g>
<g opacity="0.2">
<rect y="190" width="6" height="3" fill="#F75049"/>
<rect x="7" y="190" width="1" height="3" fill="#F75049"/>
</g>
<g opacity="0.2">
<rect y="195" width="3" height="3" fill="#F75049"/>
<rect x="4" y="195" width="4" height="3" fill="#F75049"/>
</g>
<g opacity="0.2">
<rect y="200" width="4" height="3" fill="#F75049"/>
<rect x="5" y="200" width="3" height="3" fill="#F75049"/>
</g>
<g opacity="0.2">
<rect y="205" width="3" height="3" fill="#F75049"/>
<rect x="4" y="205" width="4" height="3" fill="#F75049"/>
</g>
<g opacity="0.2">
<rect y="210" width="3" height="3" fill="#F75049"/>
<rect x="4" y="210" width="4" height="3" fill="#F75049"/>
</g>
<g opacity="0.2">
<rect y="215" width="5" height="3" fill="#F75049"/>
<rect x="6" y="215" width="2" height="3" fill="#F75049"/>
</g>
<g opacity="0.2">
<rect y="220" width="6" height="3" fill="#F75049"/>
<rect x="7" y="220" width="1" height="3" fill="#F75049"/>
</g>
<g opacity="0.2">
<rect y="225" width="3" height="3" fill="#F75049"/>
<rect x="4" y="225" width="4" height="3" fill="#F75049"/>
</g>
<g opacity="0.2">
<rect y="230" width="4" height="3" fill="#F75049"/>
<rect x="5" y="230" width="3" height="3" fill="#F75049"/>
</g>
<g opacity="0.2">
<rect y="235" width="3" height="3" fill="#F75049"/>
<rect x="4" y="235" width="4" height="3" fill="#F75049"/>
</g>
<g opacity="0.2">
<rect y="240" width="3" height="3" fill="#F75049"/>
<rect x="4" y="240" width="4" height="3" fill="#F75049"/>
</g>
<g opacity="0.2">
<rect y="245" width="5" height="3" fill="#F75049"/>
<rect x="6" y="245" width="2" height="3" fill="#F75049"/>
</g>
<g opacity="0.2">
<rect y="250" width="6" height="3" fill="#F75049"/>
<rect x="7" y="250" width="1" height="3" fill="#F75049"/>
</g>
<g opacity="0.2">
<rect y="255" width="3" height="3" fill="#F75049"/>
<rect x="4" y="255" width="4" height="3" fill="#F75049"/>
</g>
<g opacity="0.2">
<rect y="260" width="4" height="3" fill="#F75049"/>
<rect x="5" y="260" width="3" height="3" fill="#F75049"/>
</g>
<g opacity="0.2">
<rect y="265" width="3" height="3" fill="#F75049"/>
<rect x="4" y="265" width="4" height="3" fill="#F75049"/>
</g>
<g opacity="0.2">
<rect y="270" width="3" height="3" fill="#F75049"/>
<rect x="4" y="270" width="4" height="3" fill="#F75049"/>
</g>
<g opacity="0.2">
<rect y="275" width="5" height="3" fill="#F75049"/>
<rect x="6" y="275" width="2" height="3" fill="#F75049"/>
</g>
<g opacity="0.2">
<rect y="280" width="6" height="3" fill="#F75049"/>
<rect x="7" y="280" width="1" height="3" fill="#F75049"/>
</g>
<g opacity="0.2">
<rect y="285" width="3" height="3" fill="#F75049"/>
<rect x="4" y="285" width="4" height="3" fill="#F75049"/>
</g>
<g opacity="0.2">
<rect y="290" width="4" height="3" fill="#F75049"/>
<rect x="5" y="290" width="3" height="3" fill="#F75049"/>
</g>
<g opacity="0.2">
<rect y="295" width="3" height="3" fill="#F75049"/>
<rect x="4" y="295" width="4" height="3" fill="#F75049"/>
</g>
<g opacity="0.2">
<rect y="300" width="3" height="3" fill="#F75049"/>
<rect x="4" y="300" width="4" height="3" fill="#F75049"/>
</g>
<g opacity="0.2">
<rect y="305" width="5" height="3" fill="#F75049"/>
<rect x="6" y="305" width="2" height="3" fill="#F75049"/>
</g>
<g opacity="0.2">
<rect y="310" width="6" height="3" fill="#F75049"/>
<rect x="7" y="310" width="1" height="3" fill="#F75049"/>
</g>
<g opacity="0.2">
<rect y="315" width="3" height="3" fill="#F75049"/>
<rect x="4" y="315" width="4" height="3" fill="#F75049"/>
</g>
<g opacity="0.2">
<rect y="320" width="4" height="3" fill="#F75049"/>
<rect x="5" y="320" width="3" height="3" fill="#F75049"/>
</g>
<g opacity="0.2">
<rect y="325" width="3" height="3" fill="#F75049"/>
<rect x="4" y="325" width="4" height="3" fill="#F75049"/>
</g>
<g opacity="0.2">
<rect y="330" width="3" height="3" fill="#F75049"/>
<rect x="4" y="330" width="4" height="3" fill="#F75049"/>
</g>
<g opacity="0.2">
<rect y="335" width="5" height="3" fill="#F75049"/>
<rect x="6" y="335" width="2" height="3" fill="#F75049"/>
</g>
<g opacity="0.2">
<rect y="340" width="6" height="3" fill="#F75049"/>
<rect x="7" y="340" width="1" height="3" fill="#F75049"/>
</g>
<g opacity="0.2">
<rect y="345" width="3" height="3" fill="#F75049"/>
<rect x="4" y="345" width="4" height="3" fill="#F75049"/>
</g>
<g opacity="0.2">
<rect y="350" width="4" height="3" fill="#F75049"/>
<rect x="5" y="350" width="3" height="3" fill="#F75049"/>
</g>
<g opacity="0.2">
<rect y="355" width="3" height="3" fill="#F75049"/>
<rect x="4" y="355" width="4" height="3" fill="#F75049"/>
</g>
<g opacity="0.2">
<rect y="360" width="3" height="3" fill="#F75049"/>
<rect x="4" y="360" width="4" height="3" fill="#F75049"/>
</g>
<g opacity="0.2">
<rect y="365" width="5" height="3" fill="#F75049"/>
<rect x="6" y="365" width="2" height="3" fill="#F75049"/>
</g>
<g opacity="0.2">
<rect y="370" width="6" height="3" fill="#F75049"/>
<rect x="7" y="370" width="1" height="3" fill="#F75049"/>
</g>
<g opacity="0.2">
<rect y="375" width="3" height="3" fill="#F75049"/>
<rect x="4" y="375" width="4" height="3" fill="#F75049"/>
</g>
<g opacity="0.2">
<rect y="380" width="4" height="3" fill="#F75049"/>
<rect x="5" y="380" width="3" height="3" fill="#F75049"/>
</g>
<g opacity="0.2">
<rect y="385" width="3" height="3" fill="#F75049"/>
<rect x="4" y="385" width="4" height="3" fill="#F75049"/>
</g>
<g opacity="0.2">
<rect y="390" width="3" height="3" fill="#F75049"/>
<rect x="4" y="390" width="4" height="3" fill="#F75049"/>
</g>
<g opacity="0.2">
<rect y="395" width="5" height="3" fill="#F75049"/>
<rect x="6" y="395" width="2" height="3" fill="#F75049"/>
</g>
<g opacity="0.2">
<rect y="400" width="6" height="3" fill="#F75049"/>
<rect x="7" y="400" width="1" height="3" fill="#F75049"/>
</g>
<g opacity="0.2">
<rect y="405" width="3" height="3" fill="#F75049"/>
<rect x="4" y="405" width="4" height="3" fill="#F75049"/>
</g>
<g opacity="0.2">
<rect y="410" width="4" height="3" fill="#F75049"/>
<rect x="5" y="410" width="3" height="3" fill="#F75049"/>
</g>
<g opacity="0.2">
<rect y="415" width="3" height="3" fill="#F75049"/>
<rect x="4" y="415" width="4" height="3" fill="#F75049"/>
</g>
<g opacity="0.2">
<rect y="420" width="3" height="3" fill="#F75049"/>
<rect x="4" y="420" width="4" height="3" fill="#F75049"/>
</g>
<g opacity="0.2">
<rect y="425" width="5" height="3" fill="#F75049"/>
<rect x="6" y="425" width="2" height="3" fill="#F75049"/>
</g>
<g opacity="0.2">
<rect y="430" width="6" height="3" fill="#F75049"/>
<rect x="7" y="430" width="1" height="3" fill="#F75049"/>
</g>
<g opacity="0.2">
<rect y="435" width="3" height="3" fill="#F75049"/>
<rect x="4" y="435" width="4" height="3" fill="#F75049"/>
</g>
<g opacity="0.2">
<rect y="440" width="4" height="3" fill="#F75049"/>
<rect x="5" y="440" width="3" height="3" fill="#F75049"/>
</g>
<g opacity="0.2">
<rect y="445" width="3" height="3" fill="#F75049"/>
<rect x="4" y="445" width="4" height="3" fill="#F75049"/>
</g>
<g opacity="0.2">
<rect y="450" width="3" height="3" fill="#F75049"/>
<rect x="4" y="450" width="4" height="3" fill="#F75049"/>
</g>
<g opacity="0.2">
<rect y="455" width="5" height="3" fill="#F75049"/>
<rect x="6" y="455" width="2" height="3" fill="#F75049"/>
</g>
<g opacity="0.2">
<rect y="460" width="6" height="3" fill="#F75049"/>
<rect x="7" y="460" width="1" height="3" fill="#F75049"/>
</g>
<g opacity="0.2">
<rect y="465" width="3" height="3" fill="#F75049"/>
<rect x="4" y="465" width="4" height="3" fill="#F75049"/>
</g>
<g opacity="0.2">
<rect y="470" width="4" height="3" fill="#F75049"/>
<rect x="5" y="470" width="3" height="3" fill="#F75049"/>
</g>
<g opacity="0.2">
<rect y="475" width="3" height="3" fill="#F75049"/>
<rect x="4" y="475" width="4" height="3" fill="#F75049"/>
</g>
<g opacity="0.2">
<rect y="480" width="3" height="3" fill="#F75049"/>
<rect x="4" y="480" width="4" height="3" fill="#F75049"/>
</g>
<g opacity="0.2">
<rect y="485" width="5" height="3" fill="#F75049"/>
<rect x="6" y="485" width="2" height="3" fill="#F75049"/>
</g>
<g opacity="0.2">
<rect y="490" width="6" height="3" fill="#F75049"/>
<rect x="7" y="490" width="1" height="3" fill="#F75049"/>
</g>
<g opacity="0.2">
<rect y="495" width="3" height="3" fill="#F75049"/>
<rect x="4" y="495" width="4" height="3" fill="#F75049"/>
</g>
<g opacity="0.2">
<rect y="500" width="4" height="3" fill="#F75049"/>
<rect x="5" y="500" width="3" height="3" fill="#F75049"/>
</g>
<g opacity="0.2">
<rect y="505" width="3" height="3" fill="#F75049"/>
<rect x="4" y="505" width="4" height="3" fill="#F75049"/>
</g>
<g opacity="0.2">
<rect y="510" width="3" height="3" fill="#F75049"/>
<rect x="4" y="510" width="4" height="3" fill="#F75049"/>
</g>
<g opacity="0.2">
<rect y="515" width="5" height="3" fill="#F75049"/>
<rect x="6" y="515" width="2" height="3" fill="#F75049"/>
</g>
<g opacity="0.2">
<rect y="520" width="6" height="3" fill="#F75049"/>
<rect x="7" y="520" width="1" height="3" fill="#F75049"/>
</g>
<g opacity="0.2">
<rect y="525" width="3" height="3" fill="#F75049"/>
<rect x="4" y="525" width="4" height="3" fill="#F75049"/>
</g>
<g opacity="0.2">
<rect y="530" width="4" height="3" fill="#F75049"/>
<rect x="5" y="530" width="3" height="3" fill="#F75049"/>
</g>
<g opacity="0.2">
<rect y="535" width="3" height="3" fill="#F75049"/>
<rect x="4" y="535" width="4" height="3" fill="#F75049"/>
</g>
<g opacity="0.2">
<rect y="540" width="3" height="3" fill="#F75049"/>
<rect x="4" y="540" width="4" height="3" fill="#F75049"/>
</g>
<g opacity="0.2">
<rect y="545" width="5" height="3" fill="#F75049"/>
<rect x="6" y="545" width="2" height="3" fill="#F75049"/>
</g>
<g opacity="0.2">
<rect y="550" width="6" height="3" fill="#F75049"/>
<rect x="7" y="550" width="1" height="3" fill="#F75049"/>
</g>
<g opacity="0.2">
<rect y="555" width="3" height="3" fill="#F75049"/>
<rect x="4" y="555" width="4" height="3" fill="#F75049"/>
</g>
<g opacity="0.2">
<rect y="560" width="4" height="3" fill="#F75049"/>
<rect x="5" y="560" width="3" height="3" fill="#F75049"/>
</g>
<g opacity="0.2">
<rect y="565" width="3" height="3" fill="#F75049"/>
<rect x="4" y="565" width="4" height="3" fill="#F75049"/>
</g>
<g opacity="0.2">
<rect y="570" width="3" height="3" fill="#F75049"/>
<rect x="4" y="570" width="4" height="3" fill="#F75049"/>
</g>
<g opacity="0.2">
<rect y="575" width="5" height="3" fill="#F75049"/>
<rect x="6" y="575" width="2" height="3" fill="#F75049"/>
</g>
<g opacity="0.2">
<rect y="580" width="6" height="3" fill="#F75049"/>
<rect x="7" y="580" width="1" height="3" fill="#F75049"/>
</g>
<g opacity="0.2">
<rect y="585" width="3" height="3" fill="#F75049"/>
<rect x="4" y="585" width="4" height="3" fill="#F75049"/>
</g>
<g opacity="0.2">
<rect y="590" width="4" height="3" fill="#F75049"/>
<rect x="5" y="590" width="3" height="3" fill="#F75049"/>
</g>
<g opacity="0.2">
<rect y="595" width="3" height="3" fill="#F75049"/>
<rect x="4" y="595" width="4" height="3" fill="#F75049"/>
</g>
<g opacity="0.2">
<rect y="600" width="3" height="3" fill="#F75049"/>
<rect x="4" y="600" width="4" height="3" fill="#F75049"/>
</g>
<g opacity="0.2">
<rect y="605" width="5" height="3" fill="#F75049"/>
<rect x="6" y="605" width="2" height="3" fill="#F75049"/>
</g>
<g opacity="0.2">
<rect y="610" width="6" height="3" fill="#F75049"/>
<rect x="7" y="610" width="1" height="3" fill="#F75049"/>
</g>
<g opacity="0.2">
<rect y="615" width="3" height="3" fill="#F75049"/>
<rect x="4" y="615" width="4" height="3" fill="#F75049"/>
</g>
<g opacity="0.2">
<rect y="620" width="4" height="3" fill="#F75049"/>
<rect x="5" y="620" width="3" height="3" fill="#F75049"/>
</g>
<g opacity="0.2">
<rect y="625" width="3" height="3" fill="#F75049"/>
<rect x="4" y="625" width="4" height="3" fill="#F75049"/>
</g>
<g opacity="0.2">
<rect y="630" width="3" height="3" fill="#F75049"/>
<rect x="4" y="630" width="4" height="3" fill="#F75049"/>
</g>
<g opacity="0.2">
<rect y="635" width="5" height="3" fill="#F75049"/>
<rect x="6" y="635" width="2" height="3" fill="#F75049"/>
</g>
<g opacity="0.2">
<rect y="640" width="6" height="3" fill="#F75049"/>
<rect x="7" y="640" width="1" height="3" fill="#F75049"/>
</g>
<g opacity="0.2">
<rect y="645" width="3" height="3" fill="#F75049"/>
<rect x="4" y="645" width="4" height="3" fill="#F75049"/>
</g>
<g opacity="0.2">
<rect y="650" width="4" height="3" fill="#F75049"/>
<rect x="5" y="650" width="3" height="3" fill="#F75049"/>
</g>
<g opacity="0.2">
<rect y="655" width="3" height="3" fill="#F75049"/>
<rect x="4" y="655" width="4" height="3" fill="#F75049"/>
</g>
<g opacity="0.2">
<rect y="660" width="3" height="3" fill="#F75049"/>
<rect x="4" y="660" width="4" height="3" fill="#F75049"/>
</g>
<g opacity="0.2">
<rect y="665" width="5" height="3" fill="#F75049"/>
<rect x="6" y="665" width="2" height="3" fill="#F75049"/>
</g>
<g opacity="0.2">
<rect y="670" width="6" height="3" fill="#F75049"/>
<rect x="7" y="670" width="1" height="3" fill="#F75049"/>
</g>
<g opacity="0.2">
<rect y="675" width="3" height="3" fill="#F75049"/>
<rect x="4" y="675" width="4" height="3" fill="#F75049"/>
</g>
<g opacity="0.2">
<rect y="680" width="4" height="3" fill="#F75049"/>
<rect x="5" y="680" width="3" height="3" fill="#F75049"/>
</g>
<g opacity="0.2">
<rect y="685" width="3" height="3" fill="#F75049"/>
<rect x="4" y="685" width="4" height="3" fill="#F75049"/>
</g>
<g opacity="0.2">
<rect y="690" width="3" height="3" fill="#F75049"/>
<rect x="4" y="690" width="4" height="3" fill="#F75049"/>
</g>
<g opacity="0.2">
<rect y="695" width="5" height="3" fill="#F75049"/>
<rect x="6" y="695" width="2" height="3" fill="#F75049"/>
</g>
<g opacity="0.2">
<rect y="700" width="6" height="3" fill="#F75049"/>
<rect x="7" y="700" width="1" height="3" fill="#F75049"/>
</g>
<g opacity="0.2">
<rect y="705" width="3" height="3" fill="#F75049"/>
<rect x="4" y="705" width="4" height="3" fill="#F75049"/>
</g>
<g opacity="0.2">
<rect y="710" width="4" height="3" fill="#F75049"/>
<rect x="5" y="710" width="3" height="3" fill="#F75049"/>
</g>
<g opacity="0.2">
<rect y="715" width="3" height="3" fill="#F75049"/>
<rect x="4" y="715" width="4" height="3" fill="#F75049"/>
</g>
<g opacity="0.2">
<rect y="720" width="3" height="3" fill="#F75049"/>
<rect x="4" y="720" width="4" height="3" fill="#F75049"/>
</g>
<g opacity="0.2">
<rect y="725" width="5" height="3" fill="#F75049"/>
<rect x="6" y="725" width="2" height="3" fill="#F75049"/>
</g>
<g opacity="0.2">
<rect y="730" width="6" height="3" fill="#F75049"/>
<rect x="7" y="730" width="1" height="3" fill="#F75049"/>
</g>
<g opacity="0.2">
<rect y="735" width="3" height="3" fill="#F75049"/>
<rect x="4" y="735" width="4" height="3" fill="#F75049"/>
</g>
<g opacity="0.2">
<rect y="740" width="4" height="3" fill="#F75049"/>
<rect x="5" y="740" width="3" height="3" fill="#F75049"/>
</g>
<g opacity="0.2">
<rect y="745" width="3" height="3" fill="#F75049"/>
<rect x="4" y="745" width="4" height="3" fill="#F75049"/>
</g>
<rect width="6" height="7" transform="translate(11 104)" fill="#F75049"/>
<path d="M13.132 106.98V106.82C13.132 106.78 13.148 106.751 13.18 106.732L13.644 106.464C13.6867 106.44 13.7213 106.428 13.748 106.428H13.916C13.9533 106.428 13.972 106.447 13.972 106.484V108.944C13.972 108.981 13.9533 109 13.916 109H13.736C13.6987 109 13.68 108.981 13.68 108.944V106.74L13.204 107.012C13.156 107.039 13.132 107.028 13.132 106.98Z" fill="white"/>
</svg>
