<svg width="17" height="748" viewBox="0 0 17 748" fill="none" xmlns="http://www.w3.org/2000/svg">
<rect width="6" height="7" transform="translate(0 370.5)" fill="#F75049"/>
<path d="M2.228 375.444V375.084C2.228 374.905 2.30267 374.759 2.452 374.644L3.224 374.036C3.35733 373.935 3.424 373.809 3.424 373.66V373.516C3.424 373.289 3.30933 373.176 3.08 373.176H2.836C2.612 373.176 2.5 373.289 2.5 373.516V373.68C2.5 373.72 2.48133 373.74 2.444 373.74H2.264C2.22933 373.74 2.212 373.72 2.212 373.68V373.512C2.212 373.328 2.264 373.185 2.368 373.084C2.472 372.98 2.616 372.928 2.8 372.928H3.12C3.304 372.928 3.448 372.98 3.552 373.084C3.656 373.185 3.708 373.328 3.708 373.512V373.676C3.708 373.884 3.62533 374.053 3.46 374.184L2.676 374.804C2.588 374.873 2.544 374.957 2.544 375.056V375.24H3.66C3.69733 375.24 3.716 375.259 3.716 375.296V375.444C3.716 375.481 3.69733 375.5 3.66 375.5H2.284C2.24667 375.5 2.228 375.481 2.228 375.444Z" fill="white"/>
<g opacity="0.2">
<rect x="9" width="3" height="3" fill="#F75049"/>
<rect x="13" width="4" height="3" fill="#F75049"/>
</g>
<g opacity="0.2">
<rect x="9" y="5" width="5" height="3" fill="#F75049"/>
<rect x="15" y="5" width="2" height="3" fill="#F75049"/>
</g>
<g opacity="0.2">
<rect x="9" y="10" width="6" height="3" fill="#F75049"/>
<rect x="16" y="10" width="1" height="3" fill="#F75049"/>
</g>
<g opacity="0.2">
<rect x="9" y="15" width="3" height="3" fill="#F75049"/>
<rect x="13" y="15" width="4" height="3" fill="#F75049"/>
</g>
<g opacity="0.2">
<rect x="9" y="20" width="4" height="3" fill="#F75049"/>
<rect x="14" y="20" width="3" height="3" fill="#F75049"/>
</g>
<g opacity="0.2">
<rect x="9" y="25" width="3" height="3" fill="#F75049"/>
<rect x="13" y="25" width="4" height="3" fill="#F75049"/>
</g>
<g opacity="0.2">
<rect x="9" y="30" width="3" height="3" fill="#F75049"/>
<rect x="13" y="30" width="4" height="3" fill="#F75049"/>
</g>
<g opacity="0.2">
<rect x="9" y="35" width="5" height="3" fill="#F75049"/>
<rect x="15" y="35" width="2" height="3" fill="#F75049"/>
</g>
<g opacity="0.2">
<rect x="9" y="40" width="6" height="3" fill="#F75049"/>
<rect x="16" y="40" width="1" height="3" fill="#F75049"/>
</g>
<g opacity="0.2">
<rect x="9" y="45" width="3" height="3" fill="#F75049"/>
<rect x="13" y="45" width="4" height="3" fill="#F75049"/>
</g>
<g opacity="0.2">
<rect x="9" y="50" width="4" height="3" fill="#F75049"/>
<rect x="14" y="50" width="3" height="3" fill="#F75049"/>
</g>
<g opacity="0.2">
<rect x="9" y="55" width="3" height="3" fill="#F75049"/>
<rect x="13" y="55" width="4" height="3" fill="#F75049"/>
</g>
<g opacity="0.2">
<rect x="9" y="60" width="3" height="3" fill="#F75049"/>
<rect x="13" y="60" width="4" height="3" fill="#F75049"/>
</g>
<g opacity="0.2">
<rect x="9" y="65" width="5" height="3" fill="#F75049"/>
<rect x="15" y="65" width="2" height="3" fill="#F75049"/>
</g>
<g opacity="0.2">
<rect x="9" y="70" width="6" height="3" fill="#F75049"/>
<rect x="16" y="70" width="1" height="3" fill="#F75049"/>
</g>
<g opacity="0.2">
<rect x="9" y="75" width="3" height="3" fill="#F75049"/>
<rect x="13" y="75" width="4" height="3" fill="#F75049"/>
</g>
<g opacity="0.2">
<rect x="9" y="80" width="4" height="3" fill="#F75049"/>
<rect x="14" y="80" width="3" height="3" fill="#F75049"/>
</g>
<g opacity="0.2">
<rect x="9" y="85" width="3" height="3" fill="#F75049"/>
<rect x="13" y="85" width="4" height="3" fill="#F75049"/>
</g>
<g opacity="0.2">
<rect x="9" y="90" width="3" height="3" fill="#F75049"/>
<rect x="13" y="90" width="4" height="3" fill="#F75049"/>
</g>
<g opacity="0.2">
<rect x="9" y="95" width="5" height="3" fill="#F75049"/>
<rect x="15" y="95" width="2" height="3" fill="#F75049"/>
</g>
<g opacity="0.2">
<rect x="9" y="100" width="6" height="3" fill="#F75049"/>
<rect x="16" y="100" width="1" height="3" fill="#F75049"/>
</g>
<rect x="9" y="105" width="3" height="3" fill="#F75049"/>
<rect x="13" y="105" width="4" height="3" fill="#F75049"/>
<g opacity="0.2">
<rect x="9" y="110" width="4" height="3" fill="#F75049"/>
<rect x="14" y="110" width="3" height="3" fill="#F75049"/>
</g>
<g opacity="0.2">
<rect x="9" y="115" width="3" height="3" fill="#F75049"/>
<rect x="13" y="115" width="4" height="3" fill="#F75049"/>
</g>
<g opacity="0.2">
<rect x="9" y="120" width="3" height="3" fill="#F75049"/>
<rect x="13" y="120" width="4" height="3" fill="#F75049"/>
</g>
<g opacity="0.2">
<rect x="9" y="125" width="5" height="3" fill="#F75049"/>
<rect x="15" y="125" width="2" height="3" fill="#F75049"/>
</g>
<g opacity="0.2">
<rect x="9" y="130" width="6" height="3" fill="#F75049"/>
<rect x="16" y="130" width="1" height="3" fill="#F75049"/>
</g>
<g opacity="0.2">
<rect x="9" y="135" width="3" height="3" fill="#F75049"/>
<rect x="13" y="135" width="4" height="3" fill="#F75049"/>
</g>
<g opacity="0.2">
<rect x="9" y="140" width="4" height="3" fill="#F75049"/>
<rect x="14" y="140" width="3" height="3" fill="#F75049"/>
</g>
<g opacity="0.2">
<rect x="9" y="145" width="3" height="3" fill="#F75049"/>
<rect x="13" y="145" width="4" height="3" fill="#F75049"/>
</g>
<g opacity="0.2">
<rect x="9" y="150" width="3" height="3" fill="#F75049"/>
<rect x="13" y="150" width="4" height="3" fill="#F75049"/>
</g>
<g opacity="0.2">
<rect x="9" y="155" width="5" height="3" fill="#F75049"/>
<rect x="15" y="155" width="2" height="3" fill="#F75049"/>
</g>
<g opacity="0.2">
<rect x="9" y="160" width="6" height="3" fill="#F75049"/>
<rect x="16" y="160" width="1" height="3" fill="#F75049"/>
</g>
<g opacity="0.2">
<rect x="9" y="165" width="3" height="3" fill="#F75049"/>
<rect x="13" y="165" width="4" height="3" fill="#F75049"/>
</g>
<g opacity="0.2">
<rect x="9" y="170" width="4" height="3" fill="#F75049"/>
<rect x="14" y="170" width="3" height="3" fill="#F75049"/>
</g>
<g opacity="0.2">
<rect x="9" y="175" width="3" height="3" fill="#F75049"/>
<rect x="13" y="175" width="4" height="3" fill="#F75049"/>
</g>
<g opacity="0.2">
<rect x="9" y="180" width="3" height="3" fill="#F75049"/>
<rect x="13" y="180" width="4" height="3" fill="#F75049"/>
</g>
<g opacity="0.2">
<rect x="9" y="185" width="5" height="3" fill="#F75049"/>
<rect x="15" y="185" width="2" height="3" fill="#F75049"/>
</g>
<g opacity="0.2">
<rect x="9" y="190" width="6" height="3" fill="#F75049"/>
<rect x="16" y="190" width="1" height="3" fill="#F75049"/>
</g>
<g opacity="0.2">
<rect x="9" y="195" width="3" height="3" fill="#F75049"/>
<rect x="13" y="195" width="4" height="3" fill="#F75049"/>
</g>
<g opacity="0.2">
<rect x="9" y="200" width="4" height="3" fill="#F75049"/>
<rect x="14" y="200" width="3" height="3" fill="#F75049"/>
</g>
<g opacity="0.2">
<rect x="9" y="205" width="3" height="3" fill="#F75049"/>
<rect x="13" y="205" width="4" height="3" fill="#F75049"/>
</g>
<g opacity="0.2">
<rect x="9" y="210" width="3" height="3" fill="#F75049"/>
<rect x="13" y="210" width="4" height="3" fill="#F75049"/>
</g>
<g opacity="0.2">
<rect x="9" y="215" width="5" height="3" fill="#F75049"/>
<rect x="15" y="215" width="2" height="3" fill="#F75049"/>
</g>
<g opacity="0.2">
<rect x="9" y="220" width="6" height="3" fill="#F75049"/>
<rect x="16" y="220" width="1" height="3" fill="#F75049"/>
</g>
<g opacity="0.2">
<rect x="9" y="225" width="3" height="3" fill="#F75049"/>
<rect x="13" y="225" width="4" height="3" fill="#F75049"/>
</g>
<g opacity="0.2">
<rect x="9" y="230" width="4" height="3" fill="#F75049"/>
<rect x="14" y="230" width="3" height="3" fill="#F75049"/>
</g>
<g opacity="0.2">
<rect x="9" y="235" width="3" height="3" fill="#F75049"/>
<rect x="13" y="235" width="4" height="3" fill="#F75049"/>
</g>
<g opacity="0.2">
<rect x="9" y="240" width="3" height="3" fill="#F75049"/>
<rect x="13" y="240" width="4" height="3" fill="#F75049"/>
</g>
<g opacity="0.2">
<rect x="9" y="245" width="5" height="3" fill="#F75049"/>
<rect x="15" y="245" width="2" height="3" fill="#F75049"/>
</g>
<g opacity="0.2">
<rect x="9" y="250" width="6" height="3" fill="#F75049"/>
<rect x="16" y="250" width="1" height="3" fill="#F75049"/>
</g>
<g opacity="0.2">
<rect x="9" y="255" width="3" height="3" fill="#F75049"/>
<rect x="13" y="255" width="4" height="3" fill="#F75049"/>
</g>
<g opacity="0.2">
<rect x="9" y="260" width="4" height="3" fill="#F75049"/>
<rect x="14" y="260" width="3" height="3" fill="#F75049"/>
</g>
<g opacity="0.2">
<rect x="9" y="265" width="3" height="3" fill="#F75049"/>
<rect x="13" y="265" width="4" height="3" fill="#F75049"/>
</g>
<g opacity="0.2">
<rect x="9" y="270" width="3" height="3" fill="#F75049"/>
<rect x="13" y="270" width="4" height="3" fill="#F75049"/>
</g>
<g opacity="0.2">
<rect x="9" y="275" width="5" height="3" fill="#F75049"/>
<rect x="15" y="275" width="2" height="3" fill="#F75049"/>
</g>
<g opacity="0.2">
<rect x="9" y="280" width="6" height="3" fill="#F75049"/>
<rect x="16" y="280" width="1" height="3" fill="#F75049"/>
</g>
<g opacity="0.2">
<rect x="9" y="285" width="3" height="3" fill="#F75049"/>
<rect x="13" y="285" width="4" height="3" fill="#F75049"/>
</g>
<g opacity="0.2">
<rect x="9" y="290" width="4" height="3" fill="#F75049"/>
<rect x="14" y="290" width="3" height="3" fill="#F75049"/>
</g>
<g opacity="0.2">
<rect x="9" y="295" width="3" height="3" fill="#F75049"/>
<rect x="13" y="295" width="4" height="3" fill="#F75049"/>
</g>
<g opacity="0.2">
<rect x="9" y="300" width="3" height="3" fill="#F75049"/>
<rect x="13" y="300" width="4" height="3" fill="#F75049"/>
</g>
<g opacity="0.2">
<rect x="9" y="305" width="5" height="3" fill="#F75049"/>
<rect x="15" y="305" width="2" height="3" fill="#F75049"/>
</g>
<g opacity="0.2">
<rect x="9" y="310" width="6" height="3" fill="#F75049"/>
<rect x="16" y="310" width="1" height="3" fill="#F75049"/>
</g>
<g opacity="0.2">
<rect x="9" y="315" width="3" height="3" fill="#F75049"/>
<rect x="13" y="315" width="4" height="3" fill="#F75049"/>
</g>
<g opacity="0.2">
<rect x="9" y="320" width="4" height="3" fill="#F75049"/>
<rect x="14" y="320" width="3" height="3" fill="#F75049"/>
</g>
<g opacity="0.2">
<rect x="9" y="325" width="3" height="3" fill="#F75049"/>
<rect x="13" y="325" width="4" height="3" fill="#F75049"/>
</g>
<g opacity="0.2">
<rect x="9" y="330" width="3" height="3" fill="#F75049"/>
<rect x="13" y="330" width="4" height="3" fill="#F75049"/>
</g>
<g opacity="0.2">
<rect x="9" y="335" width="5" height="3" fill="#F75049"/>
<rect x="15" y="335" width="2" height="3" fill="#F75049"/>
</g>
<g opacity="0.2">
<rect x="9" y="340" width="6" height="3" fill="#F75049"/>
<rect x="16" y="340" width="1" height="3" fill="#F75049"/>
</g>
<g opacity="0.2">
<rect x="9" y="345" width="3" height="3" fill="#F75049"/>
<rect x="13" y="345" width="4" height="3" fill="#F75049"/>
</g>
<g opacity="0.2">
<rect x="9" y="350" width="4" height="3" fill="#F75049"/>
<rect x="14" y="350" width="3" height="3" fill="#F75049"/>
</g>
<g opacity="0.2">
<rect x="9" y="355" width="3" height="3" fill="#F75049"/>
<rect x="13" y="355" width="4" height="3" fill="#F75049"/>
</g>
<g opacity="0.2">
<rect x="9" y="360" width="3" height="3" fill="#F75049"/>
<rect x="13" y="360" width="4" height="3" fill="#F75049"/>
</g>
<g opacity="0.2">
<rect x="9" y="365" width="5" height="3" fill="#F75049"/>
<rect x="15" y="365" width="2" height="3" fill="#F75049"/>
</g>
<g opacity="0.2">
<rect x="9" y="370" width="6" height="3" fill="#F75049"/>
<rect x="16" y="370" width="1" height="3" fill="#F75049"/>
</g>
<rect x="9" y="375" width="3" height="3" fill="#F75049"/>
<rect x="13" y="375" width="4" height="3" fill="#F75049"/>
<g opacity="0.2">
<rect x="9" y="380" width="4" height="3" fill="#F75049"/>
<rect x="14" y="380" width="3" height="3" fill="#F75049"/>
</g>
<g opacity="0.2">
<rect x="9" y="385" width="3" height="3" fill="#F75049"/>
<rect x="13" y="385" width="4" height="3" fill="#F75049"/>
</g>
<g opacity="0.2">
<rect x="9" y="390" width="3" height="3" fill="#F75049"/>
<rect x="13" y="390" width="4" height="3" fill="#F75049"/>
</g>
<g opacity="0.2">
<rect x="9" y="395" width="5" height="3" fill="#F75049"/>
<rect x="15" y="395" width="2" height="3" fill="#F75049"/>
</g>
<g opacity="0.2">
<rect x="9" y="400" width="6" height="3" fill="#F75049"/>
<rect x="16" y="400" width="1" height="3" fill="#F75049"/>
</g>
<g opacity="0.2">
<rect x="9" y="405" width="3" height="3" fill="#F75049"/>
<rect x="13" y="405" width="4" height="3" fill="#F75049"/>
</g>
<g opacity="0.2">
<rect x="9" y="410" width="4" height="3" fill="#F75049"/>
<rect x="14" y="410" width="3" height="3" fill="#F75049"/>
</g>
<g opacity="0.2">
<rect x="9" y="415" width="3" height="3" fill="#F75049"/>
<rect x="13" y="415" width="4" height="3" fill="#F75049"/>
</g>
<g opacity="0.2">
<rect x="9" y="420" width="3" height="3" fill="#F75049"/>
<rect x="13" y="420" width="4" height="3" fill="#F75049"/>
</g>
<g opacity="0.2">
<rect x="9" y="425" width="5" height="3" fill="#F75049"/>
<rect x="15" y="425" width="2" height="3" fill="#F75049"/>
</g>
<g opacity="0.2">
<rect x="9" y="430" width="6" height="3" fill="#F75049"/>
<rect x="16" y="430" width="1" height="3" fill="#F75049"/>
</g>
<g opacity="0.2">
<rect x="9" y="435" width="3" height="3" fill="#F75049"/>
<rect x="13" y="435" width="4" height="3" fill="#F75049"/>
</g>
<g opacity="0.2">
<rect x="9" y="440" width="4" height="3" fill="#F75049"/>
<rect x="14" y="440" width="3" height="3" fill="#F75049"/>
</g>
<g opacity="0.2">
<rect x="9" y="445" width="3" height="3" fill="#F75049"/>
<rect x="13" y="445" width="4" height="3" fill="#F75049"/>
</g>
<g opacity="0.2">
<rect x="9" y="450" width="3" height="3" fill="#F75049"/>
<rect x="13" y="450" width="4" height="3" fill="#F75049"/>
</g>
<g opacity="0.2">
<rect x="9" y="455" width="5" height="3" fill="#F75049"/>
<rect x="15" y="455" width="2" height="3" fill="#F75049"/>
</g>
<g opacity="0.2">
<rect x="9" y="460" width="6" height="3" fill="#F75049"/>
<rect x="16" y="460" width="1" height="3" fill="#F75049"/>
</g>
<g opacity="0.2">
<rect x="9" y="465" width="3" height="3" fill="#F75049"/>
<rect x="13" y="465" width="4" height="3" fill="#F75049"/>
</g>
<g opacity="0.2">
<rect x="9" y="470" width="4" height="3" fill="#F75049"/>
<rect x="14" y="470" width="3" height="3" fill="#F75049"/>
</g>
<g opacity="0.2">
<rect x="9" y="475" width="3" height="3" fill="#F75049"/>
<rect x="13" y="475" width="4" height="3" fill="#F75049"/>
</g>
<g opacity="0.2">
<rect x="9" y="480" width="3" height="3" fill="#F75049"/>
<rect x="13" y="480" width="4" height="3" fill="#F75049"/>
</g>
<g opacity="0.2">
<rect x="9" y="485" width="5" height="3" fill="#F75049"/>
<rect x="15" y="485" width="2" height="3" fill="#F75049"/>
</g>
<g opacity="0.2">
<rect x="9" y="490" width="6" height="3" fill="#F75049"/>
<rect x="16" y="490" width="1" height="3" fill="#F75049"/>
</g>
<g opacity="0.2">
<rect x="9" y="495" width="3" height="3" fill="#F75049"/>
<rect x="13" y="495" width="4" height="3" fill="#F75049"/>
</g>
<g opacity="0.2">
<rect x="9" y="500" width="4" height="3" fill="#F75049"/>
<rect x="14" y="500" width="3" height="3" fill="#F75049"/>
</g>
<rect x="9" y="505" width="3" height="3" fill="#F75049"/>
<rect x="13" y="505" width="4" height="3" fill="#F75049"/>
<g opacity="0.2">
<rect x="9" y="510" width="3" height="3" fill="#F75049"/>
<rect x="13" y="510" width="4" height="3" fill="#F75049"/>
</g>
<g opacity="0.2">
<rect x="9" y="515" width="5" height="3" fill="#F75049"/>
<rect x="15" y="515" width="2" height="3" fill="#F75049"/>
</g>
<g opacity="0.2">
<rect x="9" y="520" width="6" height="3" fill="#F75049"/>
<rect x="16" y="520" width="1" height="3" fill="#F75049"/>
</g>
<g opacity="0.2">
<rect x="9" y="525" width="3" height="3" fill="#F75049"/>
<rect x="13" y="525" width="4" height="3" fill="#F75049"/>
</g>
<g opacity="0.2">
<rect x="9" y="530" width="4" height="3" fill="#F75049"/>
<rect x="14" y="530" width="3" height="3" fill="#F75049"/>
</g>
<g opacity="0.2">
<rect x="9" y="535" width="3" height="3" fill="#F75049"/>
<rect x="13" y="535" width="4" height="3" fill="#F75049"/>
</g>
<g opacity="0.2">
<rect x="9" y="540" width="3" height="3" fill="#F75049"/>
<rect x="13" y="540" width="4" height="3" fill="#F75049"/>
</g>
<g opacity="0.2">
<rect x="9" y="545" width="5" height="3" fill="#F75049"/>
<rect x="15" y="545" width="2" height="3" fill="#F75049"/>
</g>
<g opacity="0.2">
<rect x="9" y="550" width="6" height="3" fill="#F75049"/>
<rect x="16" y="550" width="1" height="3" fill="#F75049"/>
</g>
<g opacity="0.2">
<rect x="9" y="555" width="3" height="3" fill="#F75049"/>
<rect x="13" y="555" width="4" height="3" fill="#F75049"/>
</g>
<g opacity="0.2">
<rect x="9" y="560" width="4" height="3" fill="#F75049"/>
<rect x="14" y="560" width="3" height="3" fill="#F75049"/>
</g>
<g opacity="0.2">
<rect x="9" y="565" width="3" height="3" fill="#F75049"/>
<rect x="13" y="565" width="4" height="3" fill="#F75049"/>
</g>
<g opacity="0.2">
<rect x="9" y="570" width="3" height="3" fill="#F75049"/>
<rect x="13" y="570" width="4" height="3" fill="#F75049"/>
</g>
<g opacity="0.2">
<rect x="9" y="575" width="5" height="3" fill="#F75049"/>
<rect x="15" y="575" width="2" height="3" fill="#F75049"/>
</g>
<g opacity="0.2">
<rect x="9" y="580" width="6" height="3" fill="#F75049"/>
<rect x="16" y="580" width="1" height="3" fill="#F75049"/>
</g>
<g opacity="0.2">
<rect x="9" y="585" width="3" height="3" fill="#F75049"/>
<rect x="13" y="585" width="4" height="3" fill="#F75049"/>
</g>
<g opacity="0.2">
<rect x="9" y="590" width="4" height="3" fill="#F75049"/>
<rect x="14" y="590" width="3" height="3" fill="#F75049"/>
</g>
<g opacity="0.2">
<rect x="9" y="595" width="3" height="3" fill="#F75049"/>
<rect x="13" y="595" width="4" height="3" fill="#F75049"/>
</g>
<g opacity="0.2">
<rect x="9" y="600" width="3" height="3" fill="#F75049"/>
<rect x="13" y="600" width="4" height="3" fill="#F75049"/>
</g>
<g opacity="0.2">
<rect x="9" y="605" width="5" height="3" fill="#F75049"/>
<rect x="15" y="605" width="2" height="3" fill="#F75049"/>
</g>
<g opacity="0.2">
<rect x="9" y="610" width="6" height="3" fill="#F75049"/>
<rect x="16" y="610" width="1" height="3" fill="#F75049"/>
</g>
<g opacity="0.2">
<rect x="9" y="615" width="3" height="3" fill="#F75049"/>
<rect x="13" y="615" width="4" height="3" fill="#F75049"/>
</g>
<g opacity="0.2">
<rect x="9" y="620" width="4" height="3" fill="#F75049"/>
<rect x="14" y="620" width="3" height="3" fill="#F75049"/>
</g>
<g opacity="0.2">
<rect x="9" y="625" width="3" height="3" fill="#F75049"/>
<rect x="13" y="625" width="4" height="3" fill="#F75049"/>
</g>
<g opacity="0.2">
<rect x="9" y="630" width="3" height="3" fill="#F75049"/>
<rect x="13" y="630" width="4" height="3" fill="#F75049"/>
</g>
<g opacity="0.2">
<rect x="9" y="635" width="5" height="3" fill="#F75049"/>
<rect x="15" y="635" width="2" height="3" fill="#F75049"/>
</g>
<g opacity="0.2">
<rect x="9" y="640" width="6" height="3" fill="#F75049"/>
<rect x="16" y="640" width="1" height="3" fill="#F75049"/>
</g>
<g opacity="0.2">
<rect x="9" y="645" width="3" height="3" fill="#F75049"/>
<rect x="13" y="645" width="4" height="3" fill="#F75049"/>
</g>
<g opacity="0.2">
<rect x="9" y="650" width="4" height="3" fill="#F75049"/>
<rect x="14" y="650" width="3" height="3" fill="#F75049"/>
</g>
<g opacity="0.2">
<rect x="9" y="655" width="3" height="3" fill="#F75049"/>
<rect x="13" y="655" width="4" height="3" fill="#F75049"/>
</g>
<g opacity="0.2">
<rect x="9" y="660" width="3" height="3" fill="#F75049"/>
<rect x="13" y="660" width="4" height="3" fill="#F75049"/>
</g>
<g opacity="0.2">
<rect x="9" y="665" width="5" height="3" fill="#F75049"/>
<rect x="15" y="665" width="2" height="3" fill="#F75049"/>
</g>
<g opacity="0.2">
<rect x="9" y="670" width="6" height="3" fill="#F75049"/>
<rect x="16" y="670" width="1" height="3" fill="#F75049"/>
</g>
<g opacity="0.2">
<rect x="9" y="675" width="3" height="3" fill="#F75049"/>
<rect x="13" y="675" width="4" height="3" fill="#F75049"/>
</g>
<g opacity="0.2">
<rect x="9" y="680" width="4" height="3" fill="#F75049"/>
<rect x="14" y="680" width="3" height="3" fill="#F75049"/>
</g>
<g opacity="0.2">
<rect x="9" y="685" width="3" height="3" fill="#F75049"/>
<rect x="13" y="685" width="4" height="3" fill="#F75049"/>
</g>
<g opacity="0.2">
<rect x="9" y="690" width="3" height="3" fill="#F75049"/>
<rect x="13" y="690" width="4" height="3" fill="#F75049"/>
</g>
<g opacity="0.2">
<rect x="9" y="695" width="5" height="3" fill="#F75049"/>
<rect x="15" y="695" width="2" height="3" fill="#F75049"/>
</g>
<g opacity="0.2">
<rect x="9" y="700" width="6" height="3" fill="#F75049"/>
<rect x="16" y="700" width="1" height="3" fill="#F75049"/>
</g>
<g opacity="0.2">
<rect x="9" y="705" width="3" height="3" fill="#F75049"/>
<rect x="13" y="705" width="4" height="3" fill="#F75049"/>
</g>
<g opacity="0.2">
<rect x="9" y="710" width="4" height="3" fill="#F75049"/>
<rect x="14" y="710" width="3" height="3" fill="#F75049"/>
</g>
<g opacity="0.2">
<rect x="9" y="715" width="3" height="3" fill="#F75049"/>
<rect x="13" y="715" width="4" height="3" fill="#F75049"/>
</g>
<g opacity="0.2">
<rect x="9" y="720" width="3" height="3" fill="#F75049"/>
<rect x="13" y="720" width="4" height="3" fill="#F75049"/>
</g>
<g opacity="0.2">
<rect x="9" y="725" width="5" height="3" fill="#F75049"/>
<rect x="15" y="725" width="2" height="3" fill="#F75049"/>
</g>
<g opacity="0.2">
<rect x="9" y="730" width="6" height="3" fill="#F75049"/>
<rect x="16" y="730" width="1" height="3" fill="#F75049"/>
</g>
<g opacity="0.2">
<rect x="9" y="735" width="3" height="3" fill="#F75049"/>
<rect x="13" y="735" width="4" height="3" fill="#F75049"/>
</g>
<g opacity="0.2">
<rect x="9" y="740" width="4" height="3" fill="#F75049"/>
<rect x="14" y="740" width="3" height="3" fill="#F75049"/>
</g>
<g opacity="0.2">
<rect x="9" y="745" width="3" height="3" fill="#F75049"/>
<rect x="13" y="745" width="4" height="3" fill="#F75049"/>
</g>
</svg>
